terminal-grotesque_open.ufo
<glyph name="exclam" format="1">
  <advance width="212"/>
  <unicode hex="0021"/>
  <outline>
    <contour>
      <point x="57" y="0" type="line"/>
      <point x="57" y="96" type="line"/>
      <point x="153" y="96" type="line"/>
      <point x="153" y="0" type="line"/>
    </contour>
    <contour>
      <point x="57" y="192" type="line"/>
      <point x="57" y="640" type="line"/>
      <point x="153" y="640" type="line"/>
      <point x="153" y="192" type="line"/>
    </contour>
    <contour>
      <point x="121" y="224" type="line"/>
      <point x="121" y="608" type="line"/>
      <point x="89" y="608" type="line"/>
      <point x="89" y="224" type="line"/>
    </contour>
    <contour>
      <point x="121" y="32" type="line"/>
      <point x="121" y="64" type="line"/>
      <point x="89" y="64" type="line"/>
      <point x="89" y="32" type="line"/>
    </contour>
  </outline>
</glyph>
<glyph name="numbersign" format="1">
  <advance width="752"/>
  <unicode hex="0023"/>
  <outline>
    <contour>
      <point x="438" y="224" type="line"/>
      <point x="438" y="320" type="line"/>
      <point x="470" y="320" type="line"/>
      <point x="470" y="416" type="line"/>
      <point x="310" y="416" type="line"/>
      <point x="310" y="320" type="line"/>
      <point x="278" y="320" type="line"/>
      <point x="278" y="224" type="line"/>
    </contour>
    <contour>
      <point x="182" y="96" type="line"/>
      <point x="182" y="192" type="line"/>
      <point x="150" y="192" type="line"/>
      <point x="150" y="96" type="line"/>
    </contour>
    <contour>
      <point x="470" y="288" type="line"/>
      <point x="470" y="192" type="line"/>
      <point x="502" y="192" type="line"/>
      <point x="502" y="288" type="line"/>
    </contour>
    <contour>
      <point x="246" y="192" type="line"/>
      <point x="246" y="288" type="line"/>
      <point x="214" y="288" type="line"/>
      <point x="214" y="192" type="line"/>
    </contour>
    <contour>
      <point x="246" y="352" type="line"/>
      <point x="278" y="352" type="line"/>
      <point x="278" y="448" type="line"/>
      <point x="246" y="448" type="line"/>
    </contour>
    <contour>
      <point x="310" y="544" type="line"/>
      <point x="310" y="448" type="line"/>
      <point x="342" y="448" type="line"/>
      <point x="342" y="544" type="line"/>
    </contour>
    <contour>
      <point x="566" y="544" type="line"/>
      <point x="566" y="448" type="line"/>
      <point x="598" y="448" type="line"/>
      <point x="598" y="544" type="line"/>
    </contour>
    <contour>
      <point x="534" y="352" type="line"/>
      <point x="534" y="448" type="line"/>
      <point x="502" y="448" type="line"/>
      <point x="502" y="352" type="line"/>
    </contour>
    <contour>
      <point x="406" y="96" type="line"/>
      <point x="438" y="96" type="line"/>
      <point x="438" y="192" type="line"/>
      <point x="406" y="192" type="line"/>
    </contour>
    <contour>
      <point x="86" y="0" type="line"/>
      <point x="86" y="64" type="line"/>
      <point x="118" y="64" type="line"/>
      <point x="118" y="160" type="line"/>
      <point x="22" y="160" type="line"/>
      <point x="22" y="224" type="line"/>
      <point x="182" y="224" type="line"/>
      <point x="182" y="320" type="line"/>
      <point x="214" y="320" type="line"/>
      <point x="214" y="416" type="line"/>
      <point x="118" y="416" type="line"/>
      <point x="118" y="480" type="line"/>
      <point x="278" y="480" type="line"/>
      <point x="278" y="576" type="line"/>
      <point x="310" y="576" type="line"/>
      <point x="310" y="640" type="line"/>
      <point x="406" y="640" type="line"/>
      <point x="406" y="576" type="line"/>
      <point x="374" y="576" type="line"/>
      <point x="374" y="480" type="line"/>
      <point x="534" y="480" type="line"/>
      <point x="534" y="576" type="line"/>
      <point x="566" y="576" type="line"/>
      <point x="566" y="640" type="line"/>
      <point x="662" y="640" type="line"/>
      <point x="662" y="576" type="line"/>
      <point x="630" y="576" type="line"/>
      <point x="630" y="480" type="line"/>
      <point x="726" y="480" type="line"/>
      <point x="726" y="416" type="line"/>
      <point x="566" y="416" type="line"/>
      <point x="566" y="320" type="line"/>
      <point x="534" y="320" type="line"/>
      <point x="534" y="224" type="line"/>
      <point x="630" y="224" type="line"/>
      <point x="630" y="160" type="line"/>
      <point x="470" y="160" type="line"/>
      <point x="470" y="64" type="line"/>
      <point x="438" y="64" type="line"/>
      <point x="438" y="0" type="line"/>
      <point x="342" y="0" type="line"/>
      <point x="342" y="64" type="line"/>
      <point x="374" y="64" type="line"/>
      <point x="374" y="160" type="line"/>
      <point x="214" y="160" type="line"/>
      <point x="214" y="64" type="line"/>
      <point x="182" y="64" type="line"/>
      <point x="182" y="0" type="line"/>
    </contour>
  </outline>
</glyph>
<glyph name="dollar" format="1">
  <advance width="513"/>
  <unicode hex="0024"/>
  <outline>
    <contour>
      <point x="339" y="96" type="line"/>
      <point x="339" y="128" type="line"/>
      <point x="371" y="128" type="line"/>
      <point x="371" y="224" type="line"/>
      <point x="339" y="224" type="line"/>
      <point x="339" y="256" type="line"/>
      <point x="307" y="256" type="line"/>
      <point x="307" y="96" type="line"/>
    </contour>
    <contour>
      <point x="243" y="384" type="line"/>
      <point x="243" y="544" type="line"/>
      <point x="179" y="544" type="line"/>
      <point x="179" y="512" type="line"/>
      <point x="147" y="512" type="line"/>
      <point x="147" y="416" type="line"/>
      <point x="211" y="416" type="line"/>
      <point x="211" y="384" type="line"/>
    </contour>
    <contour>
      <point x="243" y="-64" type="line"/>
      <point x="243" y="0" type="line"/>
      <point x="179" y="0" type="line"/>
      <point x="179" y="32" type="line"/>
      <point x="115" y="32" type="line"/>
      <point x="115" y="64" type="line"/>
      <point x="83" y="64" type="line"/>
      <point x="83" y="96" type="line"/>
      <point x="51" y="96" type="line"/>
      <point x="51" y="160" type="line"/>
      <point x="147" y="160" type="line"/>
      <point x="147" y="128" type="line"/>
      <point x="179" y="128" type="line"/>
      <point x="179" y="96" type="line"/>
      <point x="243" y="96" type="line"/>
      <point x="243" y="288" type="line"/>
      <point x="211" y="288" type="line"/>
      <point x="211" y="320" type="line"/>
      <point x="115" y="320" type="line"/>
      <point x="115" y="352" type="line"/>
      <point x="83" y="352" type="line"/>
      <point x="83" y="384" type="line"/>
      <point x="51" y="384" type="line"/>
      <point x="51" y="544" type="line"/>
      <point x="83" y="544" type="line"/>
      <point x="83" y="576" type="line"/>
      <point x="115" y="576" type="line"/>
      <point x="115" y="608" type="line"/>
      <point x="147" y="608" type="line"/>
      <point x="147" y="640" type="line"/>
      <point x="243" y="640" type="line"/>
      <point x="243" y="704" type="line"/>
      <point x="307" y="704" type="line"/>
      <point x="307" y="640" type="line"/>
      <point x="371" y="640" type="line"/>
      <point x="371" y="608" type="line"/>
      <point x="403" y="608" type="line"/>
      <point x="403" y="576" type="line"/>
      <point x="435" y="576" type="line"/>
      <point x="435" y="512" type="line"/>
      <point x="339" y="512" type="line"/>
      <point x="339" y="544" type="line"/>
      <point x="307" y="544" type="line"/>
      <point x="307" y="352" type="line"/>
      <point x="371" y="352" type="line"/>
      <point x="371" y="320" type="line"/>
      <point x="435" y="320" type="line"/>
      <point x="435" y="256" type="line"/>
      <point x="467" y="256" type="line"/>
      <point x="467" y="96" type="line"/>
      <point x="435" y="96" type="line"/>
      <point x="435" y="64" type="line"/>
      <point x="403" y="64" type="line"/>
      <point x="403" y="32" type="line"/>
      <point x="339" y="32" type="line"/>
      <point x="339" y="0" type="line"/>
      <point x="307" y="0" type="line"/>
      <point x="307" y="-64" type="line"/>
    </contour>
    <contour>
      <point x="275" y="576" type="line"/>
      <point x="339" y="576" type="line"/>
      <point x="339" y="608" type="line"/>
      <point x="179" y="608" type="line"/>
      <point x="179" y="576" type="line"/>
    </contour>
    <contour>
      <point x="211" y="64" type="line"/>
      <point x="211" y="32" type="line"/>
      <point x="307" y="32" type="line"/>
      <point x="307" y="64" type="line"/>
    </contour>
    <contour>
      <point x="339" y="320" type="line"/>
      <point x="275" y="320" type="line"/>
      <point x="275" y="352" type="line"/>
      <point x="243" y="352" type="line"/>
      <point x="243" y="320" type="line"/>
      <point x="275" y="320" type="line"/>
      <point x="275" y="288" type="line"/>
      <point x="339" y="288" type="line"/>
    </contour>
    <contour>
      <point x="435" y="128" type="line"/>
      <point x="435" y="224" type="line"/>
      <point x="403" y="224" type="line"/>
      <point x="403" y="128" type="line"/>
    </contour>
    <contour>
      <point x="83" y="512" type="line"/>
      <point x="83" y="416" type="line"/>
      <point x="115" y="416" type="line"/>
      <point x="115" y="512" type="line"/>
    </contour>
    <contour>
      <point x="179" y="352" type="line"/>
      <point x="179" y="384" type="line"/>
      <point x="147" y="384" type="line"/>
      <point x="147" y="352" type="line"/>
    </contour>
    <contour>
      <point x="403" y="288" type="line"/>
      <point x="371" y="288" type="line"/>
      <point x="371" y="256" type="line"/>
      <point x="403" y="256" type="line"/>
    </contour>
  </outline>
</glyph>
<glyph name="ampersand" format="1">
  <advance width="586"/>
  <unicode hex="0026"/>
  <outline>
    <contour>
      <point x="173" y="0" type="line"/>
      <point x="173" y="32" type="line"/>
      <point x="109" y="32" type="line"/>
      <point x="109" y="64" type="line"/>
      <point x="77" y="64" type="line"/>
      <point x="77" y="128" type="line"/>
      <point x="45" y="128" type="line"/>
      <point x="45" y="256" type="line"/>
      <point x="77" y="256" type="line"/>
      <point x="77" y="320" type="line"/>
      <point x="109" y="320" type="line"/>
      <point x="109" y="352" type="line"/>
      <point x="141" y="352" type="line"/>
      <point x="141" y="384" type="line"/>
      <point x="109" y="384" type="line"/>
      <point x="109" y="416" type="line"/>
      <point x="77" y="416" type="line"/>
      <point x="77" y="512" type="line"/>
      <point x="109" y="512" type="line"/>
      <point x="109" y="576" type="line"/>
      <point x="141" y="576" type="line"/>
      <point x="141" y="608" type="line"/>
      <point x="205" y="608" type="line"/>
      <point x="205" y="640" type="line"/>
      <point x="333" y="640" type="line"/>
      <point x="333" y="608" type="line"/>
      <point x="397" y="608" type="line"/>
      <point x="397" y="576" type="line"/>
      <point x="429" y="576" type="line"/>
      <point x="429" y="544" type="line"/>
      <point x="461" y="544" type="line"/>
      <point x="461" y="448" type="line"/>
      <point x="429" y="448" type="line"/>
      <point x="429" y="416" type="line"/>
      <point x="333" y="416" type="line"/>
      <point x="333" y="448" type="line"/>
      <point x="365" y="448" type="line"/>
      <point x="365" y="512" type="line"/>
      <point x="333" y="512" type="line"/>
      <point x="333" y="544" type="line"/>
      <point x="205" y="544" type="line"/>
      <point x="205" y="512" type="line"/>
      <point x="173" y="512" type="line"/>
      <point x="173" y="416" type="line"/>
      <point x="205" y="416" type="line"/>
      <point x="205" y="384" type="line"/>
      <point x="269" y="384" type="line"/>
      <point x="269" y="320" type="line"/>
      <point x="205" y="320" type="line"/>
      <point x="205" y="288" type="line"/>
      <point x="173" y="288" type="line"/>
      <point x="173" y="256" type="line"/>
      <point x="141" y="256" type="line"/>
      <point x="141" y="128" type="line"/>
      <point x="173" y="128" type="line"/>
      <point x="173" y="96" type="line"/>
      <point x="365" y="96" type="line"/>
      <point x="365" y="128" type="line"/>
      <point x="397" y="128" type="line"/>
      <point x="397" y="224" type="line"/>
      <point x="365" y="224" type="line"/>
      <point x="365" y="288" type="line"/>
      <point x="557" y="288" type="line"/>
      <point x="557" y="224" type="line"/>
      <point x="493" y="224" type="line"/>
      <point x="493" y="96" type="line"/>
      <point x="461" y="96" type="line"/>
      <point x="461" y="64" type="line"/>
      <point x="429" y="64" type="line"/>
      <point x="429" y="32" type="line"/>
      <point x="397" y="32" type="line"/>
      <point x="397" y="0" type="line"/>
    </contour>
    <contour>
      <point x="365" y="32" type="line"/>
      <point x="365" y="64" type="line"/>
      <point x="205" y="64" type="line"/>
      <point x="205" y="32" type="line"/>
    </contour>
    <contour>
      <point x="461" y="128" type="line"/>
      <point x="461" y="256" type="line"/>
      <point x="429" y="256" type="line"/>
      <point x="429" y="128" type="line"/>
    </contour>
    <contour>
      <point x="77" y="224" type="line"/>
      <point x="77" y="160" type="line"/>
      <point x="109" y="160" type="line"/>
      <point x="109" y="224" type="line"/>
    </contour>
    <contour>
      <point x="301" y="608" type="line"/>
      <point x="237" y="608" type="line"/>
      <point x="237" y="576" type="line"/>
      <point x="301" y="576" type="line"/>
    </contour>
    <contour>
      <point x="109" y="480" type="line"/>
      <point x="109" y="448" type="line"/>
      <point x="141" y="448" type="line"/>
      <point x="141" y="480" type="line"/>
    </contour>
    <contour>
      <point x="429" y="480" type="line"/>
      <point x="429" y="512" type="line"/>
      <point x="397" y="512" type="line"/>
      <point x="397" y="480" type="line"/>
    </contour>
  </outline>
</glyph>
<glyph name="quotesingle" format="1">
  <advance width="155"/>
  <unicode hex="0027"/>
  <outline>
    <contour>
      <point x="32" y="480" type="line"/>
      <point x="32" y="640" type="line"/>
      <point x="96" y="640" type="line"/>
      <point x="96" y="480" type="line"/>
    </contour>
  </outline>
</glyph>
<glyph name="parenleft" format="1">
  <advance width="329"/>
  <unicode hex="0028"/>
  <outline>
    <contour>
      <point x="174" y="0" type="line"/>
      <point x="174" y="32" type="line"/>
      <point x="142" y="32" type="line"/>
      <point x="142" y="64" type="line"/>
      <point x="110" y="64" type="line"/>
      <point x="110" y="96" type="line"/>
      <point x="78" y="96" type="line"/>
      <point x="78" y="192" type="line"/>
      <point x="46" y="192" type="line"/>
      <point x="46" y="448" type="line"/>
      <point x="78" y="448" type="line"/>
      <point x="78" y="544" type="line"/>
      <point x="110" y="544" type="line"/>
      <point x="110" y="576" type="line"/>
      <point x="142" y="576" type="line"/>
      <point x="142" y="608" type="line"/>
      <point x="174" y="608" type="line"/>
      <point x="174" y="640" type="line"/>
      <point x="270" y="640" type="line"/>
      <point x="270" y="608" type="line"/>
      <point x="238" y="608" type="line"/>
      <point x="238" y="576" type="line"/>
      <point x="206" y="576" type="line"/>
      <point x="206" y="512" type="line"/>
      <point x="174" y="512" type="line"/>
      <point x="174" y="416" type="line"/>
      <point x="142" y="416" type="line"/>
      <point x="142" y="224" type="line"/>
      <point x="174" y="224" type="line"/>
      <point x="174" y="128" type="line"/>
      <point x="206" y="128" type="line"/>
      <point x="206" y="64" type="line"/>
      <point x="238" y="64" type="line"/>
      <point x="238" y="32" type="line"/>
      <point x="270" y="32" type="line"/>
      <point x="270" y="0" type="line"/>
    </contour>
    <contour>
      <point x="78" y="416" type="line"/>
      <point x="78" y="224" type="line"/>
      <point x="110" y="224" type="line"/>
      <point x="110" y="416" type="line"/>
    </contour>
    <contour>
      <point x="142" y="192" type="line"/>
      <point x="110" y="192" type="line"/>
      <point x="110" y="128" type="line"/>
      <point x="142" y="128" type="line"/>
    </contour>
    <contour>
      <point x="142" y="448" type="line"/>
      <point x="142" y="512" type="line"/>
      <point x="110" y="512" type="line"/>
      <point x="110" y="448" type="line"/>
    </contour>
  </outline>
</glyph>
<glyph name="parenright" format="1">
  <advance width="307"/>
  <unicode hex="0029"/>
  <outline>
    <contour>
      <point x="35" y="0" type="line"/>
      <point x="35" y="32" type="line"/>
      <point x="67" y="32" type="line"/>
      <point x="67" y="64" type="line"/>
      <point x="99" y="64" type="line"/>
      <point x="99" y="128" type="line"/>
      <point x="131" y="128" type="line"/>
      <point x="131" y="224" type="line"/>
      <point x="163" y="224" type="line"/>
      <point x="163" y="416" type="line"/>
      <point x="131" y="416" type="line"/>
      <point x="131" y="512" type="line"/>
      <point x="99" y="512" type="line"/>
      <point x="99" y="576" type="line"/>
      <point x="67" y="576" type="line"/>
      <point x="67" y="608" type="line"/>
      <point x="35" y="608" type="line"/>
      <point x="35" y="640" type="line"/>
      <point x="131" y="640" type="line"/>
      <point x="131" y="608" type="line"/>
      <point x="163" y="608" type="line"/>
      <point x="163" y="576" type="line"/>
      <point x="195" y="576" type="line"/>
      <point x="195" y="544" type="line"/>
      <point x="227" y="544" type="line"/>
      <point x="227" y="448" type="line"/>
      <point x="259" y="448" type="line"/>
      <point x="259" y="192" type="line"/>
      <point x="227" y="192" type="line"/>
      <point x="227" y="96" type="line"/>
      <point x="195" y="96" type="line"/>
      <point x="195" y="64" type="line"/>
      <point x="163" y="64" type="line"/>
      <point x="163" y="32" type="line"/>
      <point x="131" y="32" type="line"/>
      <point x="131" y="0" type="line"/>
    </contour>
    <contour>
      <point x="227" y="224" type="line"/>
      <point x="227" y="416" type="line"/>
      <point x="195" y="416" type="line"/>
      <point x="195" y="224" type="line"/>
    </contour>
    <contour>
      <point x="195" y="512" type="line"/>
      <point x="163" y="512" type="line"/>
      <point x="163" y="448" type="line"/>
      <point x="195" y="448" type="line"/>
    </contour>
    <contour>
      <point x="195" y="128" type="line"/>
      <point x="195" y="192" type="line"/>
      <point x="163" y="192" type="line"/>
      <point x="163" y="128" type="line"/>
    </contour>
  </outline>
</glyph>
<glyph name="asterisk" format="1">
  <advance width="304"/>
  <unicode hex="002A"/>
  <outline>
    <contour>
      <point x="53" y="448" type="line"/>
      <point x="53" y="512" type="line"/>
      <point x="85" y="512" type="line"/>
      <point x="85" y="544" type="line"/>
      <point x="53" y="544" type="line"/>
      <point x="53" y="576" type="line"/>
      <point x="21" y="576" type="line"/>
      <point x="21" y="608" type="line"/>
      <point x="117" y="608" type="line"/>
      <point x="117" y="672" type="line"/>
      <point x="149" y="672" type="line"/>
      <point x="149" y="608" type="line"/>
      <point x="245" y="608" type="line"/>
      <point x="245" y="576" type="line"/>
      <point x="213" y="576" type="line"/>
      <point x="213" y="544" type="line"/>
      <point x="181" y="544" type="line"/>
      <point x="181" y="512" type="line"/>
      <point x="213" y="512" type="line"/>
      <point x="213" y="448" type="line"/>
      <point x="181" y="448" type="line"/>
      <point x="181" y="480" type="line"/>
      <point x="149" y="480" type="line"/>
      <point x="149" y="512" type="line"/>
      <point x="117" y="512" type="line"/>
      <point x="117" y="480" type="line"/>
      <point x="85" y="480" type="line"/>
      <point x="85" y="448" type="line"/>
    </contour>
    <contour>
      <point x="149" y="576" type="line"/>
      <point x="117" y="576" type="line"/>
      <point x="117" y="544" type="line"/>
      <point x="149" y="544" type="line"/>
    </contour>
  </outline>
</glyph>
<glyph name="plus" format="1">
  <advance width="524"/>
  <unicode hex="002B"/>
  <outline>
    <contour>
      <point x="207" y="32" type="line"/>
      <point x="207" y="224" type="line"/>
      <point x="15" y="224" type="line"/>
      <point x="15" y="320" type="line"/>
      <point x="207" y="320" type="line"/>
      <point x="207" y="512" type="line"/>
      <point x="303" y="512" type="line"/>
      <point x="303" y="320" type="line"/>
      <point x="495" y="320" type="line"/>
      <point x="495" y="224" type="line"/>
      <point x="303" y="224" type="line"/>
      <point x="303" y="32" type="line"/>
    </contour>
    <contour>
      <point x="271" y="64" type="line"/>
      <point x="271" y="256" type="line"/>
      <point x="463" y="256" type="line"/>
      <point x="463" y="288" type="line"/>
      <point x="271" y="288" type="line"/>
      <point x="271" y="480" type="line"/>
      <point x="239" y="480" type="line"/>
      <point x="239" y="288" type="line"/>
      <point x="47" y="288" type="line"/>
      <point x="47" y="256" type="line"/>
      <point x="239" y="256" type="line"/>
      <point x="239" y="64" type="line"/>
    </contour>
  </outline>
</glyph>
<glyph name="hyphen" format="1">
  <advance width="422"/>
  <unicode hex="002D"/>
  <outline>
    <contour>
      <point x="387" y="224" type="line"/>
      <point x="35" y="224" type="line"/>
      <point x="35" y="320" type="line"/>
      <point x="387" y="320" type="line"/>
    </contour>
    <contour>
      <point x="355" y="288" type="line"/>
      <point x="67" y="288" type="line"/>
      <point x="67" y="256" type="line"/>
      <point x="355" y="256" type="line"/>
    </contour>
  </outline>
</glyph>
<glyph name="period" format="1">
  <advance width="171"/>
  <unicode hex="002E"/>
  <outline>
    <contour>
      <point x="27" y="0" type="line"/>
      <point x="27" y="96" type="line"/>
      <point x="123" y="96" type="line"/>
      <point x="123" y="0" type="line"/>
    </contour>
    <contour>
      <point x="91" y="32" type="line"/>
      <point x="91" y="64" type="line"/>
      <point x="59" y="64" type="line"/>
      <point x="59" y="32" type="line"/>
    </contour>
  </outline>
</glyph>
<glyph name="slash" format="1">
  <advance width="479"/>
  <unicode hex="002F"/>
  <outline>
    <contour>
      <point x="-10" y="-64" type="line"/>
      <point x="-10" y="0" type="line"/>
      <point x="22" y="0" type="line"/>
      <point x="22" y="64" type="line"/>
      <point x="54" y="64" type="line"/>
      <point x="54" y="128" type="line"/>
      <point x="86" y="128" type="line"/>
      <point x="86" y="192" type="line"/>
      <point x="118" y="192" type="line"/>
      <point x="118" y="256" type="line"/>
      <point x="150" y="256" type="line"/>
      <point x="150" y="320" type="line"/>
      <point x="182" y="320" type="line"/>
      <point x="182" y="384" type="line"/>
      <point x="214" y="384" type="line"/>
      <point x="214" y="448" type="line"/>
      <point x="246" y="448" type="line"/>
      <point x="246" y="512" type="line"/>
      <point x="278" y="512" type="line"/>
      <point x="278" y="576" type="line"/>
      <point x="310" y="576" type="line"/>
      <point x="310" y="640" type="line"/>
      <point x="342" y="640" type="line"/>
      <point x="342" y="704" type="line"/>
      <point x="438" y="704" type="line"/>
      <point x="438" y="640" type="line"/>
      <point x="406" y="640" type="line"/>
      <point x="406" y="576" type="line"/>
      <point x="374" y="576" type="line"/>
      <point x="374" y="512" type="line"/>
      <point x="342" y="512" type="line"/>
      <point x="342" y="448" type="line"/>
      <point x="310" y="448" type="line"/>
      <point x="310" y="384" type="line"/>
      <point x="278" y="384" type="line"/>
      <point x="278" y="320" type="line"/>
      <point x="246" y="320" type="line"/>
      <point x="246" y="256" type="line"/>
      <point x="214" y="256" type="line"/>
      <point x="214" y="192" type="line"/>
      <point x="182" y="192" type="line"/>
      <point x="182" y="128" type="line"/>
      <point x="150" y="128" type="line"/>
      <point x="150" y="64" type="line"/>
      <point x="118" y="64" type="line"/>
      <point x="118" y="0" type="line"/>
      <point x="86" y="0" type="line"/>
      <point x="86" y="-64" type="line"/>
    </contour>
  </outline>
</glyph>
<glyph name="zero" format="1">
  <advance width="575"/>
  <unicode hex="0030"/>
  <outline>
    <contour>
      <point x="367" y="96" type="line"/>
      <point x="367" y="128" type="line"/>
      <point x="399" y="128" type="line"/>
      <point x="399" y="224" type="line"/>
      <point x="431" y="224" type="line"/>
      <point x="431" y="416" type="line"/>
      <point x="399" y="416" type="line"/>
      <point x="399" y="512" type="line"/>
      <point x="367" y="512" type="line"/>
      <point x="367" y="544" type="line"/>
      <point x="207" y="544" type="line"/>
      <point x="207" y="512" type="line"/>
      <point x="175" y="512" type="line"/>
      <point x="175" y="416" type="line"/>
      <point x="143" y="416" type="line"/>
      <point x="143" y="224" type="line"/>
      <point x="175" y="224" type="line"/>
      <point x="175" y="128" type="line"/>
      <point x="207" y="128" type="line"/>
      <point x="207" y="96" type="line"/>
    </contour>
    <contour>
      <point x="175" y="0" type="line"/>
      <point x="175" y="32" type="line"/>
      <point x="111" y="32" type="line"/>
      <point x="111" y="96" type="line"/>
      <point x="79" y="96" type="line"/>
      <point x="79" y="192" type="line"/>
      <point x="47" y="192" type="line"/>
      <point x="47" y="448" type="line"/>
      <point x="79" y="448" type="line"/>
      <point x="79" y="544" type="line"/>
      <point x="111" y="544" type="line"/>
      <point x="111" y="608" type="line"/>
      <point x="175" y="608" type="line"/>
      <point x="175" y="640" type="line"/>
      <point x="399" y="640" type="line"/>
      <point x="399" y="608" type="line"/>
      <point x="463" y="608" type="line"/>
      <point x="463" y="544" type="line"/>
      <point x="495" y="544" type="line"/>
      <point x="495" y="448" type="line"/>
      <point x="527" y="448" type="line"/>
      <point x="527" y="192" type="line"/>
      <point x="495" y="192" type="line"/>
      <point x="495" y="96" type="line"/>
      <point x="463" y="96" type="line"/>
      <point x="463" y="32" type="line"/>
      <point x="399" y="32" type="line"/>
      <point x="399" y="0" type="line"/>
    </contour>
    <contour>
      <point x="495" y="224" type="line"/>
      <point x="495" y="416" type="line"/>
      <point x="463" y="416" type="line"/>
      <point x="463" y="224" type="line"/>
    </contour>
    <contour>
      <point x="79" y="416" type="line"/>
      <point x="79" y="224" type="line"/>
      <point x="111" y="224" type="line"/>
      <point x="111" y="416" type="line"/>
    </contour>
    <contour>
      <point x="367" y="32" type="line"/>
      <point x="367" y="64" type="line"/>
      <point x="207" y="64" type="line"/>
      <point x="207" y="32" type="line"/>
    </contour>
    <contour>
      <point x="367" y="608" type="line"/>
      <point x="207" y="608" type="line"/>
      <point x="207" y="576" type="line"/>
      <point x="367" y="576" type="line"/>
    </contour>
    <contour>
      <point x="143" y="128" type="line"/>
      <point x="143" y="192" type="line"/>
      <point x="111" y="192" type="line"/>
      <point x="111" y="128" type="line"/>
    </contour>
    <contour>
      <point x="111" y="512" type="line"/>
      <point x="111" y="448" type="line"/>
      <point x="143" y="448" type="line"/>
      <point x="143" y="512" type="line"/>
    </contour>
    <contour>
      <point x="463" y="512" type="line"/>
      <point x="431" y="512" type="line"/>
      <point x="431" y="448" type="line"/>
      <point x="463" y="448" type="line"/>
    </contour>
    <contour>
      <point x="463" y="128" type="line"/>
      <point x="463" y="192" type="line"/>
      <point x="431" y="192" type="line"/>
      <point x="431" y="128" type="line"/>
    </contour>
    <contour>
      <point x="143" y="544" type="line"/>
      <point x="175" y="544" type="line"/>
      <point x="175" y="576" type="line"/>
      <point x="143" y="576" type="line"/>
    </contour>
    <contour>
      <point x="431" y="64" type="line"/>
      <point x="431" y="96" type="line"/>
      <point x="399" y="96" type="line"/>
      <point x="399" y="64" type="line"/>
    </contour>
    <contour>
      <point x="431" y="576" type="line"/>
      <point x="399" y="576" type="line"/>
      <point x="399" y="544" type="line"/>
      <point x="431" y="544" type="line"/>
    </contour>
    <contour>
      <point x="175" y="64" type="line"/>
      <point x="175" y="96" type="line"/>
      <point x="143" y="96" type="line"/>
      <point x="143" y="64" type="line"/>
    </contour>
  </outline>
</glyph>
<glyph name="one" format="1">
  <advance width="281"/>
  <unicode hex="0031"/>
  <outline>
    <contour>
      <point x="126" y="0" type="line"/>
      <point x="126" y="480" type="line"/>
      <point x="30" y="480" type="line"/>
      <point x="30" y="544" type="line"/>
      <point x="62" y="544" type="line"/>
      <point x="62" y="576" type="line"/>
      <point x="94" y="576" type="line"/>
      <point x="94" y="608" type="line"/>
      <point x="126" y="608" type="line"/>
      <point x="126" y="640" type="line"/>
      <point x="222" y="640" type="line"/>
      <point x="222" y="0" type="line"/>
    </contour>
    <contour>
      <point x="190" y="32" type="line"/>
      <point x="190" y="608" type="line"/>
      <point x="158" y="608" type="line"/>
      <point x="158" y="576" type="line"/>
      <point x="126" y="576" type="line"/>
      <point x="126" y="544" type="line"/>
      <point x="94" y="544" type="line"/>
      <point x="94" y="512" type="line"/>
      <point x="158" y="512" type="line"/>
      <point x="158" y="32" type="line"/>
    </contour>
  </outline>
</glyph>
<glyph name="two" format="1">
  <advance width="546"/>
  <unicode hex="0032"/>
  <outline>
    <contour>
      <point x="50" y="0" type="line"/>
      <point x="50" y="96" type="line"/>
      <point x="82" y="96" type="line"/>
      <point x="82" y="128" type="line"/>
      <point x="114" y="128" type="line"/>
      <point x="114" y="160" type="line"/>
      <point x="146" y="160" type="line"/>
      <point x="146" y="192" type="line"/>
      <point x="178" y="192" type="line"/>
      <point x="178" y="224" type="line"/>
      <point x="210" y="224" type="line"/>
      <point x="210" y="256" type="line"/>
      <point x="242" y="256" type="line"/>
      <point x="242" y="288" type="line"/>
      <point x="274" y="288" type="line"/>
      <point x="274" y="320" type="line"/>
      <point x="306" y="320" type="line"/>
      <point x="306" y="352" type="line"/>
      <point x="338" y="352" type="line"/>
      <point x="338" y="384" type="line"/>
      <point x="370" y="384" type="line"/>
      <point x="370" y="512" type="line"/>
      <point x="338" y="512" type="line"/>
      <point x="338" y="544" type="line"/>
      <point x="210" y="544" type="line"/>
      <point x="210" y="512" type="line"/>
      <point x="178" y="512" type="line"/>
      <point x="178" y="480" type="line"/>
      <point x="146" y="480" type="line"/>
      <point x="146" y="416" type="line"/>
      <point x="50" y="416" type="line"/>
      <point x="50" y="480" type="line"/>
      <point x="82" y="480" type="line"/>
      <point x="82" y="544" type="line"/>
      <point x="114" y="544" type="line"/>
      <point x="114" y="576" type="line"/>
      <point x="146" y="576" type="line"/>
      <point x="146" y="608" type="line"/>
      <point x="178" y="608" type="line"/>
      <point x="178" y="640" type="line"/>
      <point x="370" y="640" type="line"/>
      <point x="370" y="608" type="line"/>
      <point x="402" y="608" type="line"/>
      <point x="402" y="576" type="line"/>
      <point x="434" y="576" type="line"/>
      <point x="434" y="544" type="line"/>
      <point x="466" y="544" type="line"/>
      <point x="466" y="352" type="line"/>
      <point x="434" y="352" type="line"/>
      <point x="434" y="320" type="line"/>
      <point x="402" y="320" type="line"/>
      <point x="402" y="288" type="line"/>
      <point x="370" y="288" type="line"/>
      <point x="370" y="256" type="line"/>
      <point x="338" y="256" type="line"/>
      <point x="338" y="224" type="line"/>
      <point x="306" y="224" type="line"/>
      <point x="306" y="192" type="line"/>
      <point x="274" y="192" type="line"/>
      <point x="274" y="160" type="line"/>
      <point x="242" y="160" type="line"/>
      <point x="242" y="128" type="line"/>
      <point x="210" y="128" type="line"/>
      <point x="210" y="96" type="line"/>
      <point x="498" y="96" type="line"/>
      <point x="498" y="0" type="line"/>
    </contour>
    <contour>
      <point x="466" y="32" type="line"/>
      <point x="466" y="64" type="line"/>
      <point x="178" y="64" type="line"/>
      <point x="178" y="128" type="line"/>
      <point x="146" y="128" type="line"/>
      <point x="146" y="96" type="line"/>
      <point x="114" y="96" type="line"/>
      <point x="114" y="64" type="line"/>
      <point x="82" y="64" type="line"/>
      <point x="82" y="32" type="line"/>
    </contour>
    <contour>
      <point x="338" y="608" type="line"/>
      <point x="210" y="608" type="line"/>
      <point x="210" y="576" type="line"/>
      <point x="338" y="576" type="line"/>
    </contour>
    <contour>
      <point x="434" y="384" type="line"/>
      <point x="434" y="512" type="line"/>
      <point x="402" y="512" type="line"/>
      <point x="402" y="384" type="line"/>
    </contour>
  </outline>
</glyph>
<glyph name="three" format="1">
  <advance width="523"/>
  <unicode hex="0033"/>
  <outline>
    <contour>
      <point x="144" y="0" type="line"/>
      <point x="144" y="32" type="line"/>
      <point x="112" y="32" type="line"/>
      <point x="112" y="64" type="line"/>
      <point x="80" y="64" type="line"/>
      <point x="80" y="96" type="line"/>
      <point x="48" y="96" type="line"/>
      <point x="48" y="160" type="line"/>
      <point x="144" y="160" type="line"/>
      <point x="144" y="128" type="line"/>
      <point x="176" y="128" type="line"/>
      <point x="176" y="96" type="line"/>
      <point x="336" y="96" type="line"/>
      <point x="336" y="128" type="line"/>
      <point x="368" y="128" type="line"/>
      <point x="368" y="256" type="line"/>
      <point x="336" y="256" type="line"/>
      <point x="336" y="288" type="line"/>
      <point x="208" y="288" type="line"/>
      <point x="208" y="384" type="line"/>
      <point x="336" y="384" type="line"/>
      <point x="336" y="416" type="line"/>
      <point x="368" y="416" type="line"/>
      <point x="368" y="512" type="line"/>
      <point x="336" y="512" type="line"/>
      <point x="336" y="544" type="line"/>
      <point x="176" y="544" type="line"/>
      <point x="176" y="512" type="line"/>
      <point x="144" y="512" type="line"/>
      <point x="144" y="480" type="line"/>
      <point x="48" y="480" type="line"/>
      <point x="48" y="544" type="line"/>
      <point x="80" y="544" type="line"/>
      <point x="80" y="576" type="line"/>
      <point x="112" y="576" type="line"/>
      <point x="112" y="608" type="line"/>
      <point x="144" y="608" type="line"/>
      <point x="144" y="640" type="line"/>
      <point x="336" y="640" type="line"/>
      <point x="336" y="608" type="line"/>
      <point x="400" y="608" type="line"/>
      <point x="400" y="576" type="line"/>
      <point x="432" y="576" type="line"/>
      <point x="432" y="544" type="line"/>
      <point x="464" y="544" type="line"/>
      <point x="464" y="384" type="line"/>
      <point x="432" y="384" type="line"/>
      <point x="432" y="352" type="line"/>
      <point x="400" y="352" type="line"/>
      <point x="400" y="320" type="line"/>
      <point x="432" y="320" type="line"/>
      <point x="432" y="288" type="line"/>
      <point x="464" y="288" type="line"/>
      <point x="464" y="96" type="line"/>
      <point x="432" y="96" type="line"/>
      <point x="432" y="64" type="line"/>
      <point x="400" y="64" type="line"/>
      <point x="400" y="32" type="line"/>
      <point x="336" y="32" type="line"/>
      <point x="336" y="0" type="line"/>
    </contour>
    <contour>
      <point x="304" y="32" type="line"/>
      <point x="304" y="64" type="line"/>
      <point x="176" y="64" type="line"/>
      <point x="176" y="32" type="line"/>
    </contour>
    <contour>
      <point x="240" y="352" type="line"/>
      <point x="240" y="320" type="line"/>
      <point x="368" y="320" type="line"/>
      <point x="368" y="352" type="line"/>
    </contour>
    <contour>
      <point x="304" y="608" type="line"/>
      <point x="176" y="608" type="line"/>
      <point x="176" y="576" type="line"/>
      <point x="304" y="576" type="line"/>
    </contour>
    <contour>
      <point x="432" y="128" type="line"/>
      <point x="432" y="256" type="line"/>
      <point x="400" y="256" type="line"/>
      <point x="400" y="128" type="line"/>
    </contour>
    <contour>
      <point x="432" y="416" type="line"/>
      <point x="432" y="512" type="line"/>
      <point x="400" y="512" type="line"/>
      <point x="400" y="416" type="line"/>
    </contour>
  </outline>
</glyph>
<glyph name="four" format="1">
  <advance width="533"/>
  <unicode hex="0034"/>
  <outline>
    <contour>
      <point x="312" y="256" type="line"/>
      <point x="312" y="480" type="line"/>
      <point x="280" y="480" type="line"/>
      <point x="280" y="448" type="line"/>
      <point x="248" y="448" type="line"/>
      <point x="248" y="416" type="line"/>
      <point x="216" y="416" type="line"/>
      <point x="216" y="384" type="line"/>
      <point x="184" y="384" type="line"/>
      <point x="184" y="352" type="line"/>
      <point x="152" y="352" type="line"/>
      <point x="152" y="320" type="line"/>
      <point x="120" y="320" type="line"/>
      <point x="120" y="256" type="line"/>
    </contour>
    <contour>
      <point x="312" y="0" type="line"/>
      <point x="312" y="160" type="line"/>
      <point x="24" y="160" type="line"/>
      <point x="24" y="352" type="line"/>
      <point x="56" y="352" type="line"/>
      <point x="56" y="384" type="line"/>
      <point x="88" y="384" type="line"/>
      <point x="88" y="416" type="line"/>
      <point x="120" y="416" type="line"/>
      <point x="120" y="448" type="line"/>
      <point x="152" y="448" type="line"/>
      <point x="152" y="480" type="line"/>
      <point x="184" y="480" type="line"/>
      <point x="184" y="512" type="line"/>
      <point x="216" y="512" type="line"/>
      <point x="216" y="544" type="line"/>
      <point x="248" y="544" type="line"/>
      <point x="248" y="576" type="line"/>
      <point x="280" y="576" type="line"/>
      <point x="280" y="608" type="line"/>
      <point x="312" y="608" type="line"/>
      <point x="312" y="640" type="line"/>
      <point x="408" y="640" type="line"/>
      <point x="408" y="256" type="line"/>
      <point x="504" y="256" type="line"/>
      <point x="504" y="160" type="line"/>
      <point x="408" y="160" type="line"/>
      <point x="408" y="0" type="line"/>
    </contour>
    <contour>
      <point x="88" y="224" type="line"/>
      <point x="88" y="320" type="line"/>
      <point x="56" y="320" type="line"/>
      <point x="56" y="192" type="line"/>
      <point x="344" y="192" type="line"/>
      <point x="344" y="32" type="line"/>
      <point x="376" y="32" type="line"/>
      <point x="376" y="192" type="line"/>
      <point x="472" y="192" type="line"/>
      <point x="472" y="224" type="line"/>
      <point x="376" y="224" type="line"/>
      <point x="376" y="608" type="line"/>
      <point x="344" y="608" type="line"/>
      <point x="344" y="576" type="line"/>
      <point x="312" y="576" type="line"/>
      <point x="312" y="544" type="line"/>
      <point x="280" y="544" type="line"/>
      <point x="280" y="512" type="line"/>
      <point x="344" y="512" type="line"/>
      <point x="344" y="224" type="line"/>
    </contour>
  </outline>
</glyph>
<glyph name="five" format="1">
  <advance width="531"/>
  <unicode hex="0035"/>
  <outline>
    <contour>
      <point x="172" y="0" type="line"/>
      <point x="172" y="32" type="line"/>
      <point x="108" y="32" type="line"/>
      <point x="108" y="64" type="line"/>
      <point x="76" y="64" type="line"/>
      <point x="76" y="96" type="line"/>
      <point x="44" y="96" type="line"/>
      <point x="44" y="192" type="line"/>
      <point x="140" y="192" type="line"/>
      <point x="140" y="128" type="line"/>
      <point x="172" y="128" type="line"/>
      <point x="172" y="96" type="line"/>
      <point x="300" y="96" type="line"/>
      <point x="300" y="128" type="line"/>
      <point x="364" y="128" type="line"/>
      <point x="364" y="192" type="line"/>
      <point x="396" y="192" type="line"/>
      <point x="396" y="256" type="line"/>
      <point x="364" y="256" type="line"/>
      <point x="364" y="288" type="line"/>
      <point x="332" y="288" type="line"/>
      <point x="332" y="320" type="line"/>
      <point x="300" y="320" type="line"/>
      <point x="300" y="352" type="line"/>
      <point x="76" y="352" type="line"/>
      <point x="76" y="480" type="line"/>
      <point x="108" y="480" type="line"/>
      <point x="108" y="576" type="line"/>
      <point x="140" y="576" type="line"/>
      <point x="140" y="640" type="line"/>
      <point x="428" y="640" type="line"/>
      <point x="428" y="544" type="line"/>
      <point x="204" y="544" type="line"/>
      <point x="204" y="480" type="line"/>
      <point x="172" y="480" type="line"/>
      <point x="172" y="448" type="line"/>
      <point x="332" y="448" type="line"/>
      <point x="332" y="416" type="line"/>
      <point x="396" y="416" type="line"/>
      <point x="396" y="384" type="line"/>
      <point x="428" y="384" type="line"/>
      <point x="428" y="352" type="line"/>
      <point x="460" y="352" type="line"/>
      <point x="460" y="288" type="line"/>
      <point x="492" y="288" type="line"/>
      <point x="492" y="160" type="line"/>
      <point x="460" y="160" type="line"/>
      <point x="460" y="96" type="line"/>
      <point x="428" y="96" type="line"/>
      <point x="428" y="64" type="line"/>
      <point x="396" y="64" type="line"/>
      <point x="396" y="32" type="line"/>
      <point x="332" y="32" type="line"/>
      <point x="332" y="0" type="line"/>
    </contour>
    <contour>
      <point x="300" y="416" type="line"/>
      <point x="140" y="416" type="line"/>
      <point x="140" y="448" type="line"/>
      <point x="108" y="448" type="line"/>
      <point x="108" y="384" type="line"/>
      <point x="300" y="384" type="line"/>
    </contour>
    <contour>
      <point x="396" y="576" type="line"/>
      <point x="396" y="608" type="line"/>
      <point x="172" y="608" type="line"/>
      <point x="172" y="576" type="line"/>
    </contour>
    <contour>
      <point x="428" y="320" type="line"/>
      <point x="396" y="320" type="line"/>
      <point x="396" y="352" type="line"/>
      <point x="364" y="352" type="line"/>
      <point x="364" y="384" type="line"/>
      <point x="332" y="384" type="line"/>
      <point x="332" y="352" type="line"/>
      <point x="364" y="352" type="line"/>
      <point x="364" y="320" type="line"/>
      <point x="396" y="320" type="line"/>
      <point x="396" y="288" type="line"/>
      <point x="428" y="288" type="line"/>
    </contour>
    <contour>
      <point x="300" y="32" type="line"/>
      <point x="300" y="64" type="line"/>
      <point x="204" y="64" type="line"/>
      <point x="204" y="32" type="line"/>
    </contour>
    <contour>
      <point x="460" y="192" type="line"/>
      <point x="460" y="256" type="line"/>
      <point x="428" y="256" type="line"/>
      <point x="428" y="192" type="line"/>
    </contour>
    <contour>
      <point x="364" y="64" type="line"/>
      <point x="364" y="96" type="line"/>
      <point x="332" y="96" type="line"/>
      <point x="332" y="64" type="line"/>
    </contour>
    <contour>
      <point x="108" y="160" type="line"/>
      <point x="76" y="160" type="line"/>
      <point x="76" y="128" type="line"/>
      <point x="108" y="128" type="line"/>
    </contour>
    <contour>
      <point x="172" y="512" type="line"/>
      <point x="172" y="544" type="line"/>
      <point x="140" y="544" type="line"/>
      <point x="140" y="512" type="line"/>
    </contour>
    <contour>
      <point x="428" y="128" type="line"/>
      <point x="428" y="160" type="line"/>
      <point x="396" y="160" type="line"/>
      <point x="396" y="128" type="line"/>
    </contour>
  </outline>
</glyph>
<glyph name="six" format="1">
  <advance width="554"/>
  <unicode hex="0036"/>
  <outline>
    <contour>
      <point x="367" y="96" type="line"/>
      <point x="367" y="128" type="line"/>
      <point x="399" y="128" type="line"/>
      <point x="399" y="256" type="line"/>
      <point x="367" y="256" type="line"/>
      <point x="367" y="288" type="line"/>
      <point x="207" y="288" type="line"/>
      <point x="207" y="256" type="line"/>
      <point x="175" y="256" type="line"/>
      <point x="175" y="128" type="line"/>
      <point x="207" y="128" type="line"/>
      <point x="207" y="96" type="line"/>
    </contour>
    <contour>
      <point x="175" y="0" type="line"/>
      <point x="175" y="32" type="line"/>
      <point x="111" y="32" type="line"/>
      <point x="111" y="96" type="line"/>
      <point x="79" y="96" type="line"/>
      <point x="79" y="192" type="line"/>
      <point x="47" y="192" type="line"/>
      <point x="47" y="448" type="line"/>
      <point x="79" y="448" type="line"/>
      <point x="79" y="544" type="line"/>
      <point x="111" y="544" type="line"/>
      <point x="111" y="608" type="line"/>
      <point x="175" y="608" type="line"/>
      <point x="175" y="640" type="line"/>
      <point x="399" y="640" type="line"/>
      <point x="399" y="608" type="line"/>
      <point x="463" y="608" type="line"/>
      <point x="463" y="544" type="line"/>
      <point x="495" y="544" type="line"/>
      <point x="495" y="480" type="line"/>
      <point x="399" y="480" type="line"/>
      <point x="399" y="512" type="line"/>
      <point x="367" y="512" type="line"/>
      <point x="367" y="544" type="line"/>
      <point x="207" y="544" type="line"/>
      <point x="207" y="512" type="line"/>
      <point x="175" y="512" type="line"/>
      <point x="175" y="416" type="line"/>
      <point x="143" y="416" type="line"/>
      <point x="143" y="320" type="line"/>
      <point x="175" y="320" type="line"/>
      <point x="175" y="352" type="line"/>
      <point x="207" y="352" type="line"/>
      <point x="207" y="384" type="line"/>
      <point x="431" y="384" type="line"/>
      <point x="431" y="352" type="line"/>
      <point x="463" y="352" type="line"/>
      <point x="463" y="320" type="line"/>
      <point x="495" y="320" type="line"/>
      <point x="495" y="96" type="line"/>
      <point x="463" y="96" type="line"/>
      <point x="463" y="32" type="line"/>
      <point x="399" y="32" type="line"/>
      <point x="399" y="0" type="line"/>
    </contour>
    <contour>
      <point x="463" y="128" type="line"/>
      <point x="463" y="288" type="line"/>
      <point x="431" y="288" type="line"/>
      <point x="431" y="320" type="line"/>
      <point x="399" y="320" type="line"/>
      <point x="399" y="352" type="line"/>
      <point x="239" y="352" type="line"/>
      <point x="239" y="320" type="line"/>
      <point x="399" y="320" type="line"/>
      <point x="399" y="288" type="line"/>
      <point x="431" y="288" type="line"/>
      <point x="431" y="128" type="line"/>
    </contour>
    <contour>
      <point x="79" y="416" type="line"/>
      <point x="79" y="224" type="line"/>
      <point x="111" y="224" type="line"/>
      <point x="111" y="128" type="line"/>
      <point x="143" y="128" type="line"/>
      <point x="143" y="288" type="line"/>
      <point x="111" y="288" type="line"/>
      <point x="111" y="416" type="line"/>
    </contour>
    <contour>
      <point x="367" y="608" type="line"/>
      <point x="207" y="608" type="line"/>
      <point x="207" y="576" type="line"/>
      <point x="367" y="576" type="line"/>
    </contour>
    <contour>
      <point x="367" y="32" type="line"/>
      <point x="367" y="64" type="line"/>
      <point x="207" y="64" type="line"/>
      <point x="207" y="32" type="line"/>
    </contour>
    <contour>
      <point x="143" y="448" type="line"/>
      <point x="143" y="512" type="line"/>
      <point x="111" y="512" type="line"/>
      <point x="111" y="448" type="line"/>
    </contour>
    <contour>
      <point x="175" y="544" type="line"/>
      <point x="175" y="576" type="line"/>
      <point x="143" y="576" type="line"/>
      <point x="143" y="544" type="line"/>
    </contour>
    <contour>
      <point x="431" y="64" type="line"/>
      <point x="431" y="96" type="line"/>
      <point x="399" y="96" type="line"/>
      <point x="399" y="64" type="line"/>
    </contour>
    <contour>
      <point x="175" y="64" type="line"/>
      <point x="175" y="96" type="line"/>
      <point x="143" y="96" type="line"/>
      <point x="143" y="64" type="line"/>
    </contour>
    <contour>
      <point x="399" y="544" type="line"/>
      <point x="431" y="544" type="line"/>
      <point x="431" y="576" type="line"/>
      <point x="399" y="576" type="line"/>
    </contour>
  </outline>
</glyph>
<glyph name="seven" format="1">
  <advance width="540"/>
  <unicode hex="0037"/>
  <outline>
    <contour>
      <point x="129" y="0" type="line"/>
      <point x="129" y="128" type="line"/>
      <point x="161" y="128" type="line"/>
      <point x="161" y="192" type="line"/>
      <point x="193" y="192" type="line"/>
      <point x="193" y="288" type="line"/>
      <point x="225" y="288" type="line"/>
      <point x="225" y="352" type="line"/>
      <point x="257" y="352" type="line"/>
      <point x="257" y="416" type="line"/>
      <point x="289" y="416" type="line"/>
      <point x="289" y="480" type="line"/>
      <point x="321" y="480" type="line"/>
      <point x="321" y="512" type="line"/>
      <point x="353" y="512" type="line"/>
      <point x="353" y="544" type="line"/>
      <point x="1" y="544" type="line"/>
      <point x="1" y="640" type="line"/>
      <point x="481" y="640" type="line"/>
      <point x="481" y="544" type="line"/>
      <point x="449" y="544" type="line"/>
      <point x="449" y="480" type="line"/>
      <point x="417" y="480" type="line"/>
      <point x="417" y="448" type="line"/>
      <point x="385" y="448" type="line"/>
      <point x="385" y="384" type="line"/>
      <point x="353" y="384" type="line"/>
      <point x="353" y="320" type="line"/>
      <point x="321" y="320" type="line"/>
      <point x="321" y="256" type="line"/>
      <point x="289" y="256" type="line"/>
      <point x="289" y="192" type="line"/>
      <point x="257" y="192" type="line"/>
      <point x="257" y="96" type="line"/>
      <point x="225" y="96" type="line"/>
      <point x="225" y="0" type="line"/>
    </contour>
    <contour>
      <point x="417" y="512" type="line"/>
      <point x="417" y="576" type="line"/>
      <point x="449" y="576" type="line"/>
      <point x="449" y="608" type="line"/>
      <point x="33" y="608" type="line"/>
      <point x="33" y="576" type="line"/>
      <point x="385" y="576" type="line"/>
      <point x="385" y="512" type="line"/>
    </contour>
    <contour>
      <point x="193" y="32" type="line"/>
      <point x="193" y="96" type="line"/>
      <point x="161" y="96" type="line"/>
      <point x="161" y="32" type="line"/>
    </contour>
    <contour>
      <point x="289" y="288" type="line"/>
      <point x="289" y="320" type="line"/>
      <point x="257" y="320" type="line"/>
      <point x="257" y="288" type="line"/>
    </contour>
    <contour>
      <point x="353" y="416" type="line"/>
      <point x="353" y="448" type="line"/>
      <point x="321" y="448" type="line"/>
      <point x="321" y="416" type="line"/>
    </contour>
    <contour>
      <point x="321" y="352" type="line"/>
      <point x="321" y="384" type="line"/>
      <point x="289" y="384" type="line"/>
      <point x="289" y="352" type="line"/>
    </contour>
    <contour>
      <point x="225" y="128" type="line"/>
      <point x="225" y="160" type="line"/>
      <point x="193" y="160" type="line"/>
      <point x="193" y="128" type="line"/>
    </contour>
    <contour>
      <point x="257" y="224" type="line"/>
      <point x="257" y="256" type="line"/>
      <point x="225" y="256" type="line"/>
      <point x="225" y="224" type="line"/>
    </contour>
  </outline>
</glyph>
<glyph name="eight" format="1">
  <advance width="537"/>
  <unicode hex="0038"/>
  <outline>
    <contour>
      <point x="333" y="384" type="line"/>
      <point x="333" y="416" type="line"/>
      <point x="365" y="416" type="line"/>
      <point x="365" y="512" type="line"/>
      <point x="333" y="512" type="line"/>
      <point x="333" y="544" type="line"/>
      <point x="205" y="544" type="line"/>
      <point x="205" y="512" type="line"/>
      <point x="173" y="512" type="line"/>
      <point x="173" y="416" type="line"/>
      <point x="205" y="416" type="line"/>
      <point x="205" y="384" type="line"/>
    </contour>
    <contour>
      <point x="365" y="96" type="line"/>
      <point x="365" y="128" type="line"/>
      <point x="397" y="128" type="line"/>
      <point x="397" y="256" type="line"/>
      <point x="365" y="256" type="line"/>
      <point x="365" y="288" type="line"/>
      <point x="333" y="288" type="line"/>
      <point x="333" y="320" type="line"/>
      <point x="205" y="320" type="line"/>
      <point x="205" y="288" type="line"/>
      <point x="173" y="288" type="line"/>
      <point x="173" y="256" type="line"/>
      <point x="141" y="256" type="line"/>
      <point x="141" y="128" type="line"/>
      <point x="173" y="128" type="line"/>
      <point x="173" y="96" type="line"/>
    </contour>
    <contour>
      <point x="173" y="0" type="line"/>
      <point x="173" y="32" type="line"/>
      <point x="109" y="32" type="line"/>
      <point x="109" y="64" type="line"/>
      <point x="77" y="64" type="line"/>
      <point x="77" y="128" type="line"/>
      <point x="45" y="128" type="line"/>
      <point x="45" y="256" type="line"/>
      <point x="77" y="256" type="line"/>
      <point x="77" y="320" type="line"/>
      <point x="109" y="320" type="line"/>
      <point x="109" y="352" type="line"/>
      <point x="141" y="352" type="line"/>
      <point x="141" y="384" type="line"/>
      <point x="109" y="384" type="line"/>
      <point x="109" y="416" type="line"/>
      <point x="77" y="416" type="line"/>
      <point x="77" y="512" type="line"/>
      <point x="109" y="512" type="line"/>
      <point x="109" y="576" type="line"/>
      <point x="141" y="576" type="line"/>
      <point x="141" y="608" type="line"/>
      <point x="205" y="608" type="line"/>
      <point x="205" y="640" type="line"/>
      <point x="333" y="640" type="line"/>
      <point x="333" y="608" type="line"/>
      <point x="397" y="608" type="line"/>
      <point x="397" y="576" type="line"/>
      <point x="429" y="576" type="line"/>
      <point x="429" y="512" type="line"/>
      <point x="461" y="512" type="line"/>
      <point x="461" y="416" type="line"/>
      <point x="429" y="416" type="line"/>
      <point x="429" y="384" type="line"/>
      <point x="397" y="384" type="line"/>
      <point x="397" y="352" type="line"/>
      <point x="429" y="352" type="line"/>
      <point x="429" y="320" type="line"/>
      <point x="461" y="320" type="line"/>
      <point x="461" y="256" type="line"/>
      <point x="493" y="256" type="line"/>
      <point x="493" y="128" type="line"/>
      <point x="461" y="128" type="line"/>
      <point x="461" y="64" type="line"/>
      <point x="429" y="64" type="line"/>
      <point x="429" y="32" type="line"/>
      <point x="365" y="32" type="line"/>
      <point x="365" y="0" type="line"/>
    </contour>
    <contour>
      <point x="333" y="32" type="line"/>
      <point x="333" y="64" type="line"/>
      <point x="205" y="64" type="line"/>
      <point x="205" y="32" type="line"/>
    </contour>
    <contour>
      <point x="461" y="160" type="line"/>
      <point x="461" y="224" type="line"/>
      <point x="429" y="224" type="line"/>
      <point x="429" y="160" type="line"/>
    </contour>
    <contour>
      <point x="77" y="224" type="line"/>
      <point x="77" y="160" type="line"/>
      <point x="109" y="160" type="line"/>
      <point x="109" y="224" type="line"/>
    </contour>
    <contour>
      <point x="301" y="576" type="line"/>
      <point x="301" y="608" type="line"/>
      <point x="237" y="608" type="line"/>
      <point x="237" y="576" type="line"/>
    </contour>
    <contour>
      <point x="429" y="448" type="line"/>
      <point x="429" y="480" type="line"/>
      <point x="397" y="480" type="line"/>
      <point x="397" y="448" type="line"/>
    </contour>
    <contour>
      <point x="109" y="480" type="line"/>
      <point x="109" y="448" type="line"/>
      <point x="141" y="448" type="line"/>
      <point x="141" y="480" type="line"/>
    </contour>
  </outline>
</glyph>
<glyph name="nine" format="1">
  <advance width="549"/>
  <unicode hex="0039"/>
  <outline>
    <contour>
      <point x="341" y="352" type="line"/>
      <point x="341" y="384" type="line"/>
      <point x="373" y="384" type="line"/>
      <point x="373" y="512" type="line"/>
      <point x="341" y="512" type="line"/>
      <point x="341" y="544" type="line"/>
      <point x="181" y="544" type="line"/>
      <point x="181" y="512" type="line"/>
      <point x="149" y="512" type="line"/>
      <point x="149" y="384" type="line"/>
      <point x="181" y="384" type="line"/>
      <point x="181" y="352" type="line"/>
    </contour>
    <contour>
      <point x="149" y="0" type="line"/>
      <point x="149" y="32" type="line"/>
      <point x="85" y="32" type="line"/>
      <point x="85" y="96" type="line"/>
      <point x="53" y="96" type="line"/>
      <point x="53" y="160" type="line"/>
      <point x="149" y="160" type="line"/>
      <point x="149" y="128" type="line"/>
      <point x="181" y="128" type="line"/>
      <point x="181" y="96" type="line"/>
      <point x="341" y="96" type="line"/>
      <point x="341" y="128" type="line"/>
      <point x="373" y="128" type="line"/>
      <point x="373" y="224" type="line"/>
      <point x="405" y="224" type="line"/>
      <point x="405" y="320" type="line"/>
      <point x="373" y="320" type="line"/>
      <point x="373" y="288" type="line"/>
      <point x="341" y="288" type="line"/>
      <point x="341" y="256" type="line"/>
      <point x="117" y="256" type="line"/>
      <point x="117" y="288" type="line"/>
      <point x="85" y="288" type="line"/>
      <point x="85" y="352" type="line"/>
      <point x="53" y="352" type="line"/>
      <point x="53" y="512" type="line"/>
      <point x="85" y="512" type="line"/>
      <point x="85" y="608" type="line"/>
      <point x="149" y="608" type="line"/>
      <point x="149" y="640" type="line"/>
      <point x="373" y="640" type="line"/>
      <point x="373" y="608" type="line"/>
      <point x="437" y="608" type="line"/>
      <point x="437" y="544" type="line"/>
      <point x="469" y="544" type="line"/>
      <point x="469" y="448" type="line"/>
      <point x="501" y="448" type="line"/>
      <point x="501" y="192" type="line"/>
      <point x="469" y="192" type="line"/>
      <point x="469" y="96" type="line"/>
      <point x="437" y="96" type="line"/>
      <point x="437" y="32" type="line"/>
      <point x="373" y="32" type="line"/>
      <point x="373" y="0" type="line"/>
    </contour>
    <contour>
      <point x="469" y="224" type="line"/>
      <point x="469" y="416" type="line"/>
      <point x="437" y="416" type="line"/>
      <point x="437" y="512" type="line"/>
      <point x="405" y="512" type="line"/>
      <point x="405" y="352" type="line"/>
      <point x="437" y="352" type="line"/>
      <point x="437" y="224" type="line"/>
    </contour>
    <contour>
      <point x="149" y="320" type="line"/>
      <point x="149" y="352" type="line"/>
      <point x="117" y="352" type="line"/>
      <point x="117" y="320" type="line"/>
      <point x="149" y="320" type="line"/>
      <point x="149" y="288" type="line"/>
      <point x="309" y="288" type="line"/>
      <point x="309" y="320" type="line"/>
    </contour>
    <contour>
      <point x="341" y="32" type="line"/>
      <point x="341" y="64" type="line"/>
      <point x="181" y="64" type="line"/>
      <point x="181" y="32" type="line"/>
    </contour>
    <contour>
      <point x="341" y="608" type="line"/>
      <point x="181" y="608" type="line"/>
      <point x="181" y="576" type="line"/>
      <point x="341" y="576" type="line"/>
    </contour>
    <contour>
      <point x="85" y="480" type="line"/>
      <point x="85" y="384" type="line"/>
      <point x="117" y="384" type="line"/>
      <point x="117" y="480" type="line"/>
    </contour>
    <contour>
      <point x="437" y="128" type="line"/>
      <point x="437" y="192" type="line"/>
      <point x="405" y="192" type="line"/>
      <point x="405" y="128" type="line"/>
    </contour>
    <contour>
      <point x="149" y="96" type="line"/>
      <point x="117" y="96" type="line"/>
      <point x="117" y="64" type="line"/>
      <point x="149" y="64" type="line"/>
    </contour>
    <contour>
      <point x="405" y="576" type="line"/>
      <point x="373" y="576" type="line"/>
      <point x="373" y="544" type="line"/>
      <point x="405" y="544" type="line"/>
    </contour>
    <contour>
      <point x="117" y="544" type="line"/>
      <point x="149" y="544" type="line"/>
      <point x="149" y="576" type="line"/>
      <point x="117" y="576" type="line"/>
    </contour>
    <contour>
      <point x="405" y="64" type="line"/>
      <point x="405" y="96" type="line"/>
      <point x="373" y="96" type="line"/>
      <point x="373" y="64" type="line"/>
    </contour>
  </outline>
</glyph>
<glyph name="colon" format="1">
  <advance width="195"/>
  <unicode hex="003A"/>
  <outline>
    <contour>
      <point x="50" y="32" type="line"/>
      <point x="50" y="128" type="line"/>
      <point x="146" y="128" type="line"/>
      <point x="146" y="32" type="line"/>
    </contour>
    <contour>
      <point x="50" y="320" type="line"/>
      <point x="50" y="416" type="line"/>
      <point x="146" y="416" type="line"/>
      <point x="146" y="320" type="line"/>
    </contour>
    <contour>
      <point x="114" y="352" type="line"/>
      <point x="114" y="384" type="line"/>
      <point x="82" y="384" type="line"/>
      <point x="82" y="352" type="line"/>
    </contour>
    <contour>
      <point x="114" y="64" type="line"/>
      <point x="114" y="96" type="line"/>
      <point x="82" y="96" type="line"/>
      <point x="82" y="64" type="line"/>
    </contour>
  </outline>
</glyph>
<glyph name="semicolon" format="1">
  <advance width="203"/>
  <unicode hex="003B"/>
  <outline>
    <contour>
      <point x="50" y="352" type="line"/>
      <point x="50" y="448" type="line"/>
      <point x="146" y="448" type="line"/>
      <point x="146" y="352" type="line"/>
    </contour>
    <contour>
      <point x="50" y="-96" type="line"/>
      <point x="50" y="-64" type="line"/>
      <point x="82" y="-64" type="line"/>
      <point x="82" y="-32" type="line"/>
      <point x="114" y="-32" type="line"/>
      <point x="114" y="0" type="line"/>
      <point x="50" y="0" type="line"/>
      <point x="50" y="96" type="line"/>
      <point x="146" y="96" type="line"/>
      <point x="146" y="-64" type="line"/>
      <point x="114" y="-64" type="line"/>
      <point x="114" y="-96" type="line"/>
    </contour>
    <contour>
      <point x="114" y="64" type="line"/>
      <point x="82" y="64" type="line"/>
      <point x="82" y="32" type="line"/>
      <point x="114" y="32" type="line"/>
    </contour>
    <contour>
      <point x="114" y="384" type="line"/>
      <point x="114" y="416" type="line"/>
      <point x="82" y="416" type="line"/>
      <point x="82" y="384" type="line"/>
    </contour>
  </outline>
</glyph>
<glyph name="equal" format="1">
  <advance width="610"/>
  <unicode hex="003D"/>
  <outline>
    <contour>
      <point x="49" y="128" type="line"/>
      <point x="49" y="224" type="line"/>
      <point x="561" y="224" type="line"/>
      <point x="561" y="128" type="line"/>
    </contour>
    <contour>
      <point x="49" y="352" type="line"/>
      <point x="49" y="448" type="line"/>
      <point x="561" y="448" type="line"/>
      <point x="561" y="352" type="line"/>
    </contour>
    <contour>
      <point x="529" y="384" type="line"/>
      <point x="529" y="416" type="line"/>
      <point x="81" y="416" type="line"/>
      <point x="81" y="384" type="line"/>
    </contour>
    <contour>
      <point x="529" y="160" type="line"/>
      <point x="529" y="192" type="line"/>
      <point x="81" y="192" type="line"/>
      <point x="81" y="160" type="line"/>
    </contour>
  </outline>
</glyph>
<glyph name="question" format="1">
  <advance width="531"/>
  <unicode hex="003F"/>
  <outline>
    <contour>
      <point x="216" y="0" type="line"/>
      <point x="216" y="96" type="line"/>
      <point x="312" y="96" type="line"/>
      <point x="312" y="0" type="line"/>
    </contour>
    <contour>
      <point x="216" y="192" type="line"/>
      <point x="216" y="288" type="line"/>
      <point x="248" y="288" type="line"/>
      <point x="248" y="320" type="line"/>
      <point x="280" y="320" type="line"/>
      <point x="280" y="352" type="line"/>
      <point x="312" y="352" type="line"/>
      <point x="312" y="384" type="line"/>
      <point x="344" y="384" type="line"/>
      <point x="344" y="416" type="line"/>
      <point x="376" y="416" type="line"/>
      <point x="376" y="512" type="line"/>
      <point x="344" y="512" type="line"/>
      <point x="344" y="544" type="line"/>
      <point x="184" y="544" type="line"/>
      <point x="184" y="512" type="line"/>
      <point x="152" y="512" type="line"/>
      <point x="152" y="480" type="line"/>
      <point x="120" y="480" type="line"/>
      <point x="120" y="416" type="line"/>
      <point x="24" y="416" type="line"/>
      <point x="24" y="480" type="line"/>
      <point x="56" y="480" type="line"/>
      <point x="56" y="544" type="line"/>
      <point x="88" y="544" type="line"/>
      <point x="88" y="576" type="line"/>
      <point x="120" y="576" type="line"/>
      <point x="120" y="608" type="line"/>
      <point x="152" y="608" type="line"/>
      <point x="152" y="640" type="line"/>
      <point x="344" y="640" type="line"/>
      <point x="344" y="608" type="line"/>
      <point x="408" y="608" type="line"/>
      <point x="408" y="576" type="line"/>
      <point x="440" y="576" type="line"/>
      <point x="440" y="544" type="line"/>
      <point x="472" y="544" type="line"/>
      <point x="472" y="384" type="line"/>
      <point x="440" y="384" type="line"/>
      <point x="440" y="352" type="line"/>
      <point x="408" y="352" type="line"/>
      <point x="408" y="320" type="line"/>
      <point x="376" y="320" type="line"/>
      <point x="376" y="288" type="line"/>
      <point x="344" y="288" type="line"/>
      <point x="344" y="256" type="line"/>
      <point x="312" y="256" type="line"/>
      <point x="312" y="192" type="line"/>
    </contour>
    <contour>
      <point x="312" y="608" type="line"/>
      <point x="184" y="608" type="line"/>
      <point x="184" y="576" type="line"/>
      <point x="312" y="576" type="line"/>
    </contour>
    <contour>
      <point x="440" y="416" type="line"/>
      <point x="440" y="512" type="line"/>
      <point x="408" y="512" type="line"/>
      <point x="408" y="416" type="line"/>
    </contour>
    <contour>
      <point x="280" y="224" type="line"/>
      <point x="280" y="256" type="line"/>
      <point x="248" y="256" type="line"/>
      <point x="248" y="224" type="line"/>
    </contour>
    <contour>
      <point x="280" y="32" type="line"/>
      <point x="280" y="64" type="line"/>
      <point x="248" y="64" type="line"/>
      <point x="248" y="32" type="line"/>
    </contour>
  </outline>
</glyph>
<glyph name="A" format="1">
  <advance width="674"/>
  <unicode hex="0041"/>
  <outline>
    <contour>
      <point x="434" y="288" type="line"/>
      <point x="434" y="320" type="line"/>
      <point x="402" y="320" type="line"/>
      <point x="402" y="384" type="line"/>
      <point x="370" y="384" type="line"/>
      <point x="370" y="448" type="line"/>
      <point x="338" y="448" type="line"/>
      <point x="338" y="512" type="line"/>
      <point x="306" y="512" type="line"/>
      <point x="306" y="448" type="line"/>
      <point x="274" y="448" type="line"/>
      <point x="274" y="384" type="line"/>
      <point x="242" y="384" type="line"/>
      <point x="242" y="320" type="line"/>
      <point x="210" y="320" type="line"/>
      <point x="210" y="288" type="line"/>
    </contour>
    <contour>
      <point x="18" y="0" type="line"/>
      <point x="18" y="96" type="line"/>
      <point x="50" y="96" type="line"/>
      <point x="50" y="160" type="line"/>
      <point x="82" y="160" type="line"/>
      <point x="82" y="256" type="line"/>
      <point x="114" y="256" type="line"/>
      <point x="114" y="320" type="line"/>
      <point x="146" y="320" type="line"/>
      <point x="146" y="384" type="line"/>
      <point x="178" y="384" type="line"/>
      <point x="178" y="448" type="line"/>
      <point x="210" y="448" type="line"/>
      <point x="210" y="512" type="line"/>
      <point x="242" y="512" type="line"/>
      <point x="242" y="576" type="line"/>
      <point x="274" y="576" type="line"/>
      <point x="274" y="640" type="line"/>
      <point x="370" y="640" type="line"/>
      <point x="370" y="576" type="line"/>
      <point x="402" y="576" type="line"/>
      <point x="402" y="512" type="line"/>
      <point x="434" y="512" type="line"/>
      <point x="434" y="448" type="line"/>
      <point x="466" y="448" type="line"/>
      <point x="466" y="384" type="line"/>
      <point x="498" y="384" type="line"/>
      <point x="498" y="320" type="line"/>
      <point x="530" y="320" type="line"/>
      <point x="530" y="256" type="line"/>
      <point x="562" y="256" type="line"/>
      <point x="562" y="160" type="line"/>
      <point x="594" y="160" type="line"/>
      <point x="594" y="96" type="line"/>
      <point x="626" y="96" type="line"/>
      <point x="626" y="0" type="line"/>
      <point x="530" y="0" type="line"/>
      <point x="530" y="64" type="line"/>
      <point x="498" y="64" type="line"/>
      <point x="498" y="128" type="line"/>
      <point x="466" y="128" type="line"/>
      <point x="466" y="192" type="line"/>
      <point x="178" y="192" type="line"/>
      <point x="178" y="128" type="line"/>
      <point x="146" y="128" type="line"/>
      <point x="146" y="64" type="line"/>
      <point x="114" y="64" type="line"/>
      <point x="114" y="0" type="line"/>
    </contour>
    <contour>
      <point x="178" y="256" type="line"/>
      <point x="178" y="288" type="line"/>
      <point x="146" y="288" type="line"/>
      <point x="146" y="224" type="line"/>
      <point x="498" y="224" type="line"/>
      <point x="498" y="160" type="line"/>
      <point x="530" y="160" type="line"/>
      <point x="530" y="224" type="line"/>
      <point x="498" y="224" type="line"/>
      <point x="498" y="288" type="line"/>
      <point x="466" y="288" type="line"/>
      <point x="466" y="256" type="line"/>
    </contour>
    <contour>
      <point x="146" y="160" type="line"/>
      <point x="146" y="224" type="line"/>
      <point x="114" y="224" type="line"/>
      <point x="114" y="160" type="line"/>
    </contour>
    <contour>
      <point x="338" y="544" type="line"/>
      <point x="338" y="608" type="line"/>
      <point x="306" y="608" type="line"/>
      <point x="306" y="544" type="line"/>
    </contour>
    <contour>
      <point x="594" y="32" type="line"/>
      <point x="594" y="64" type="line"/>
      <point x="562" y="64" type="line"/>
      <point x="562" y="32" type="line"/>
    </contour>
    <contour>
      <point x="562" y="96" type="line"/>
      <point x="562" y="128" type="line"/>
      <point x="530" y="128" type="line"/>
      <point x="530" y="96" type="line"/>
    </contour>
    <contour>
      <point x="82" y="32" type="line"/>
      <point x="82" y="64" type="line"/>
      <point x="50" y="64" type="line"/>
      <point x="50" y="32" type="line"/>
    </contour>
    <contour>
      <point x="114" y="96" type="line"/>
      <point x="114" y="128" type="line"/>
      <point x="82" y="128" type="line"/>
      <point x="82" y="96" type="line"/>
    </contour>
  </outline>
</glyph>
<glyph name="B" format="1">
  <advance width="552"/>
  <unicode hex="0042"/>
  <outline>
    <contour>
      <point x="345" y="384" type="line"/>
      <point x="345" y="416" type="line"/>
      <point x="377" y="416" type="line"/>
      <point x="377" y="512" type="line"/>
      <point x="345" y="512" type="line"/>
      <point x="345" y="544" type="line"/>
      <point x="153" y="544" type="line"/>
      <point x="153" y="384" type="line"/>
    </contour>
    <contour>
      <point x="377" y="96" type="line"/>
      <point x="377" y="128" type="line"/>
      <point x="409" y="128" type="line"/>
      <point x="409" y="256" type="line"/>
      <point x="377" y="256" type="line"/>
      <point x="377" y="288" type="line"/>
      <point x="153" y="288" type="line"/>
      <point x="153" y="96" type="line"/>
    </contour>
    <contour>
      <point x="57" y="0" type="line"/>
      <point x="57" y="640" type="line"/>
      <point x="377" y="640" type="line"/>
      <point x="377" y="608" type="line"/>
      <point x="409" y="608" type="line"/>
      <point x="409" y="576" type="line"/>
      <point x="441" y="576" type="line"/>
      <point x="441" y="544" type="line"/>
      <point x="473" y="544" type="line"/>
      <point x="473" y="384" type="line"/>
      <point x="441" y="384" type="line"/>
      <point x="441" y="320" type="line"/>
      <point x="473" y="320" type="line"/>
      <point x="473" y="288" type="line"/>
      <point x="505" y="288" type="line"/>
      <point x="505" y="96" type="line"/>
      <point x="473" y="96" type="line"/>
      <point x="473" y="64" type="line"/>
      <point x="441" y="64" type="line"/>
      <point x="441" y="32" type="line"/>
      <point x="409" y="32" type="line"/>
      <point x="409" y="0" type="line"/>
    </contour>
    <contour>
      <point x="121" y="64" type="line"/>
      <point x="121" y="320" type="line"/>
      <point x="409" y="320" type="line"/>
      <point x="409" y="384" type="line"/>
      <point x="377" y="384" type="line"/>
      <point x="377" y="352" type="line"/>
      <point x="121" y="352" type="line"/>
      <point x="121" y="576" type="line"/>
      <point x="345" y="576" type="line"/>
      <point x="345" y="608" type="line"/>
      <point x="89" y="608" type="line"/>
      <point x="89" y="32" type="line"/>
      <point x="377" y="32" type="line"/>
      <point x="377" y="64" type="line"/>
    </contour>
    <contour>
      <point x="473" y="128" type="line"/>
      <point x="473" y="256" type="line"/>
      <point x="441" y="256" type="line"/>
      <point x="441" y="128" type="line"/>
    </contour>
    <contour>
      <point x="441" y="416" type="line"/>
      <point x="441" y="512" type="line"/>
      <point x="409" y="512" type="line"/>
      <point x="409" y="416" type="line"/>
    </contour>
  </outline>
</glyph>
<glyph name="D" format="1">
  <advance width="615"/>
  <unicode hex="0044"/>
  <outline>
    <contour>
      <point x="313" y="96" type="line"/>
      <point x="313" y="128" type="line"/>
      <point x="377" y="128" type="line"/>
      <point x="377" y="160" type="line"/>
      <point x="409" y="160" type="line"/>
      <point x="409" y="192" type="line"/>
      <point x="441" y="192" type="line"/>
      <point x="441" y="256" type="line"/>
      <point x="473" y="256" type="line"/>
      <point x="473" y="384" type="line"/>
      <point x="441" y="384" type="line"/>
      <point x="441" y="448" type="line"/>
      <point x="409" y="448" type="line"/>
      <point x="409" y="480" type="line"/>
      <point x="377" y="480" type="line"/>
      <point x="377" y="512" type="line"/>
      <point x="313" y="512" type="line"/>
      <point x="313" y="544" type="line"/>
      <point x="153" y="544" type="line"/>
      <point x="153" y="96" type="line"/>
    </contour>
    <contour>
      <point x="57" y="0" type="line"/>
      <point x="57" y="640" type="line"/>
      <point x="345" y="640" type="line"/>
      <point x="345" y="608" type="line"/>
      <point x="441" y="608" type="line"/>
      <point x="441" y="576" type="line"/>
      <point x="473" y="576" type="line"/>
      <point x="473" y="544" type="line"/>
      <point x="505" y="544" type="line"/>
      <point x="505" y="512" type="line"/>
      <point x="537" y="512" type="line"/>
      <point x="537" y="448" type="line"/>
      <point x="569" y="448" type="line"/>
      <point x="569" y="192" type="line"/>
      <point x="537" y="192" type="line"/>
      <point x="537" y="128" type="line"/>
      <point x="505" y="128" type="line"/>
      <point x="505" y="96" type="line"/>
      <point x="473" y="96" type="line"/>
      <point x="473" y="64" type="line"/>
      <point x="441" y="64" type="line"/>
      <point x="441" y="32" type="line"/>
      <point x="345" y="32" type="line"/>
      <point x="345" y="0" type="line"/>
    </contour>
    <contour>
      <point x="121" y="64" type="line"/>
      <point x="121" y="576" type="line"/>
      <point x="313" y="576" type="line"/>
      <point x="313" y="608" type="line"/>
      <point x="89" y="608" type="line"/>
      <point x="89" y="32" type="line"/>
      <point x="313" y="32" type="line"/>
      <point x="313" y="64" type="line"/>
    </contour>
    <contour>
      <point x="537" y="224" type="line"/>
      <point x="537" y="416" type="line"/>
      <point x="505" y="416" type="line"/>
      <point x="505" y="480" type="line"/>
      <point x="473" y="480" type="line"/>
      <point x="473" y="512" type="line"/>
      <point x="441" y="512" type="line"/>
      <point x="441" y="544" type="line"/>
      <point x="409" y="544" type="line"/>
      <point x="409" y="576" type="line"/>
      <point x="345" y="576" type="line"/>
      <point x="345" y="544" type="line"/>
      <point x="409" y="544" type="line"/>
      <point x="409" y="512" type="line"/>
      <point x="441" y="512" type="line"/>
      <point x="441" y="480" type="line"/>
      <point x="473" y="480" type="line"/>
      <point x="473" y="416" type="line"/>
      <point x="505" y="416" type="line"/>
      <point x="505" y="224" type="line"/>
    </contour>
    <contour>
      <point x="505" y="160" type="line"/>
      <point x="505" y="224" type="line"/>
      <point x="473" y="224" type="line"/>
      <point x="473" y="160" type="line"/>
    </contour>
    <contour>
      <point x="409" y="64" type="line"/>
      <point x="409" y="96" type="line"/>
      <point x="345" y="96" type="line"/>
      <point x="345" y="64" type="line"/>
    </contour>
    <contour>
      <point x="441" y="96" type="line"/>
      <point x="441" y="128" type="line"/>
      <point x="409" y="128" type="line"/>
      <point x="409" y="96" type="line"/>
    </contour>
    <contour>
      <point x="473" y="128" type="line"/>
      <point x="473" y="160" type="line"/>
      <point x="441" y="160" type="line"/>
      <point x="441" y="128" type="line"/>
    </contour>
  </outline>
</glyph>
<glyph name="F" format="1">
  <advance width="500"/>
  <unicode hex="0046"/>
  <outline>
    <contour>
      <point x="57" y="0" type="line"/>
      <point x="57" y="640" type="line"/>
      <point x="441" y="640" type="line"/>
      <point x="441" y="544" type="line"/>
      <point x="153" y="544" type="line"/>
      <point x="153" y="384" type="line"/>
      <point x="441" y="384" type="line"/>
      <point x="441" y="288" type="line"/>
      <point x="153" y="288" type="line"/>
      <point x="153" y="0" type="line"/>
    </contour>
    <contour>
      <point x="121" y="32" type="line"/>
      <point x="121" y="320" type="line"/>
      <point x="409" y="320" type="line"/>
      <point x="409" y="352" type="line"/>
      <point x="121" y="352" type="line"/>
      <point x="121" y="576" type="line"/>
      <point x="409" y="576" type="line"/>
      <point x="409" y="608" type="line"/>
      <point x="89" y="608" type="line"/>
      <point x="89" y="32" type="line"/>
    </contour>
  </outline>
</glyph>
<glyph name="H" format="1">
  <advance width="596"/>
  <unicode hex="0048"/>
  <outline>
    <contour>
      <point x="57" y="0" type="line"/>
      <point x="57" y="640" type="line"/>
      <point x="153" y="640" type="line"/>
      <point x="153" y="384" type="line"/>
      <point x="441" y="384" type="line"/>
      <point x="441" y="640" type="line"/>
      <point x="537" y="640" type="line"/>
      <point x="537" y="0" type="line"/>
      <point x="441" y="0" type="line"/>
      <point x="441" y="288" type="line"/>
      <point x="153" y="288" type="line"/>
      <point x="153" y="0" type="line"/>
    </contour>
    <contour>
      <point x="121" y="32" type="line"/>
      <point x="121" y="320" type="line"/>
      <point x="473" y="320" type="line"/>
      <point x="473" y="32" type="line"/>
      <point x="505" y="32" type="line"/>
      <point x="505" y="608" type="line"/>
      <point x="473" y="608" type="line"/>
      <point x="473" y="352" type="line"/>
      <point x="121" y="352" type="line"/>
      <point x="121" y="608" type="line"/>
      <point x="89" y="608" type="line"/>
      <point x="89" y="32" type="line"/>
    </contour>
  </outline>
</glyph>
<glyph name="I" format="1">
  <advance width="212"/>
  <unicode hex="0049"/>
  <outline>
    <contour>
      <point x="57" y="0" type="line"/>
      <point x="57" y="640" type="line"/>
      <point x="153" y="640" type="line"/>
      <point x="153" y="0" type="line"/>
    </contour>
    <contour>
      <point x="121" y="32" type="line"/>
      <point x="121" y="608" type="line"/>
      <point x="89" y="608" type="line"/>
      <point x="89" y="32" type="line"/>
    </contour>
  </outline>
</glyph>
<glyph name="J" format="1">
  <advance width="426"/>
  <unicode hex="004A"/>
  <outline>
    <contour>
      <point x="111" y="0" type="line"/>
      <point x="111" y="32" type="line"/>
      <point x="47" y="32" type="line"/>
      <point x="47" y="96" type="line"/>
      <point x="15" y="96" type="line"/>
      <point x="15" y="224" type="line"/>
      <point x="111" y="224" type="line"/>
      <point x="111" y="128" type="line"/>
      <point x="143" y="128" type="line"/>
      <point x="143" y="96" type="line"/>
      <point x="239" y="96" type="line"/>
      <point x="239" y="128" type="line"/>
      <point x="271" y="128" type="line"/>
      <point x="271" y="640" type="line"/>
      <point x="367" y="640" type="line"/>
      <point x="367" y="96" type="line"/>
      <point x="335" y="96" type="line"/>
      <point x="335" y="32" type="line"/>
      <point x="271" y="32" type="line"/>
      <point x="271" y="0" type="line"/>
    </contour>
    <contour>
      <point x="335" y="128" type="line"/>
      <point x="335" y="608" type="line"/>
      <point x="303" y="608" type="line"/>
      <point x="303" y="128" type="line"/>
    </contour>
    <contour>
      <point x="239" y="32" type="line"/>
      <point x="239" y="64" type="line"/>
      <point x="143" y="64" type="line"/>
      <point x="143" y="32" type="line"/>
    </contour>
    <contour>
      <point x="79" y="192" type="line"/>
      <point x="47" y="192" type="line"/>
      <point x="47" y="128" type="line"/>
      <point x="79" y="128" type="line"/>
    </contour>
    <contour>
      <point x="303" y="64" type="line"/>
      <point x="303" y="96" type="line"/>
      <point x="271" y="96" type="line"/>
      <point x="271" y="64" type="line"/>
    </contour>
    <contour>
      <point x="111" y="96" type="line"/>
      <point x="79" y="96" type="line"/>
      <point x="79" y="64" type="line"/>
      <point x="111" y="64" type="line"/>
    </contour>
  </outline>
</glyph>
<glyph name="K" format="1">
  <advance width="681"/>
  <unicode hex="004B"/>
  <outline>
    <contour>
      <point x="57" y="0" type="line"/>
      <point x="57" y="640" type="line"/>
      <point x="153" y="640" type="line"/>
      <point x="153" y="352" type="line"/>
      <point x="185" y="352" type="line"/>
      <point x="185" y="384" type="line"/>
      <point x="217" y="384" type="line"/>
      <point x="217" y="416" type="line"/>
      <point x="249" y="416" type="line"/>
      <point x="249" y="448" type="line"/>
      <point x="281" y="448" type="line"/>
      <point x="281" y="480" type="line"/>
      <point x="313" y="480" type="line"/>
      <point x="313" y="512" type="line"/>
      <point x="345" y="512" type="line"/>
      <point x="345" y="544" type="line"/>
      <point x="377" y="544" type="line"/>
      <point x="377" y="576" type="line"/>
      <point x="409" y="576" type="line"/>
      <point x="409" y="608" type="line"/>
      <point x="441" y="608" type="line"/>
      <point x="441" y="640" type="line"/>
      <point x="569" y="640" type="line"/>
      <point x="569" y="608" type="line"/>
      <point x="537" y="608" type="line"/>
      <point x="537" y="576" type="line"/>
      <point x="505" y="576" type="line"/>
      <point x="505" y="544" type="line"/>
      <point x="473" y="544" type="line"/>
      <point x="473" y="512" type="line"/>
      <point x="441" y="512" type="line"/>
      <point x="441" y="480" type="line"/>
      <point x="409" y="480" type="line"/>
      <point x="409" y="448" type="line"/>
      <point x="377" y="448" type="line"/>
      <point x="377" y="416" type="line"/>
      <point x="345" y="416" type="line"/>
      <point x="345" y="384" type="line"/>
      <point x="313" y="384" type="line"/>
      <point x="313" y="320" type="line"/>
      <point x="345" y="320" type="line"/>
      <point x="345" y="288" type="line"/>
      <point x="377" y="288" type="line"/>
      <point x="377" y="256" type="line"/>
      <point x="409" y="256" type="line"/>
      <point x="409" y="224" type="line"/>
      <point x="441" y="224" type="line"/>
      <point x="441" y="192" type="line"/>
      <point x="473" y="192" type="line"/>
      <point x="473" y="160" type="line"/>
      <point x="505" y="160" type="line"/>
      <point x="505" y="128" type="line"/>
      <point x="537" y="128" type="line"/>
      <point x="537" y="96" type="line"/>
      <point x="569" y="96" type="line"/>
      <point x="569" y="64" type="line"/>
      <point x="601" y="64" type="line"/>
      <point x="601" y="32" type="line"/>
      <point x="633" y="32" type="line"/>
      <point x="633" y="0" type="line"/>
      <point x="505" y="0" type="line"/>
      <point x="505" y="32" type="line"/>
      <point x="473" y="32" type="line"/>
      <point x="473" y="64" type="line"/>
      <point x="441" y="64" type="line"/>
      <point x="441" y="96" type="line"/>
      <point x="409" y="96" type="line"/>
      <point x="409" y="128" type="line"/>
      <point x="377" y="128" type="line"/>
      <point x="377" y="160" type="line"/>
      <point x="345" y="160" type="line"/>
      <point x="345" y="192" type="line"/>
      <point x="313" y="192" type="line"/>
      <point x="313" y="224" type="line"/>
      <point x="281" y="224" type="line"/>
      <point x="281" y="256" type="line"/>
      <point x="249" y="256" type="line"/>
      <point x="249" y="288" type="line"/>
      <point x="217" y="288" type="line"/>
      <point x="217" y="256" type="line"/>
      <point x="185" y="256" type="line"/>
      <point x="185" y="224" type="line"/>
      <point x="153" y="224" type="line"/>
      <point x="153" y="0" type="line"/>
    </contour>
    <contour>
      <point x="121" y="32" type="line"/>
      <point x="121" y="256" type="line"/>
      <point x="153" y="256" type="line"/>
      <point x="153" y="288" type="line"/>
      <point x="185" y="288" type="line"/>
      <point x="185" y="320" type="line"/>
      <point x="121" y="320" type="line"/>
      <point x="121" y="608" type="line"/>
      <point x="89" y="608" type="line"/>
      <point x="89" y="32" type="line"/>
    </contour>
    <contour>
      <point x="281" y="320" type="line"/>
      <point x="281" y="384" type="line"/>
      <point x="249" y="384" type="line"/>
      <point x="249" y="352" type="line"/>
      <point x="217" y="352" type="line"/>
      <point x="217" y="320" type="line"/>
    </contour>
  </outline>
</glyph>
<glyph name="L" format="1">
  <advance width="521"/>
  <unicode hex="004C"/>
  <outline>
    <contour>
      <point x="57" y="0" type="line"/>
      <point x="57" y="640" type="line"/>
      <point x="153" y="640" type="line"/>
      <point x="153" y="96" type="line"/>
      <point x="473" y="96" type="line"/>
      <point x="473" y="0" type="line"/>
    </contour>
    <contour>
      <point x="441" y="32" type="line"/>
      <point x="441" y="64" type="line"/>
      <point x="121" y="64" type="line"/>
      <point x="121" y="608" type="line"/>
      <point x="89" y="608" type="line"/>
      <point x="89" y="32" type="line"/>
    </contour>
  </outline>
</glyph>
<glyph name="M" format="1">
  <advance width="724"/>
  <unicode hex="004D"/>
  <outline>
    <contour>
      <point x="57" y="0" type="line"/>
      <point x="57" y="640" type="line"/>
      <point x="217" y="640" type="line"/>
      <point x="217" y="544" type="line"/>
      <point x="249" y="544" type="line"/>
      <point x="249" y="480" type="line"/>
      <point x="281" y="480" type="line"/>
      <point x="281" y="384" type="line"/>
      <point x="313" y="384" type="line"/>
      <point x="313" y="288" type="line"/>
      <point x="345" y="288" type="line"/>
      <point x="345" y="160" type="line"/>
      <point x="377" y="160" type="line"/>
      <point x="377" y="288" type="line"/>
      <point x="409" y="288" type="line"/>
      <point x="409" y="384" type="line"/>
      <point x="441" y="384" type="line"/>
      <point x="441" y="480" type="line"/>
      <point x="473" y="480" type="line"/>
      <point x="473" y="544" type="line"/>
      <point x="505" y="544" type="line"/>
      <point x="505" y="640" type="line"/>
      <point x="665" y="640" type="line"/>
      <point x="665" y="0" type="line"/>
      <point x="569" y="0" type="line"/>
      <point x="569" y="480" type="line"/>
      <point x="537" y="480" type="line"/>
      <point x="537" y="416" type="line"/>
      <point x="505" y="416" type="line"/>
      <point x="505" y="288" type="line"/>
      <point x="473" y="288" type="line"/>
      <point x="473" y="160" type="line"/>
      <point x="441" y="160" type="line"/>
      <point x="441" y="64" type="line"/>
      <point x="409" y="64" type="line"/>
      <point x="409" y="0" type="line"/>
      <point x="313" y="0" type="line"/>
      <point x="313" y="64" type="line"/>
      <point x="281" y="64" type="line"/>
      <point x="281" y="160" type="line"/>
      <point x="249" y="160" type="line"/>
      <point x="249" y="288" type="line"/>
      <point x="217" y="288" type="line"/>
      <point x="217" y="416" type="line"/>
      <point x="185" y="416" type="line"/>
      <point x="185" y="480" type="line"/>
      <point x="153" y="480" type="line"/>
      <point x="153" y="0" type="line"/>
    </contour>
    <contour>
      <point x="121" y="32" type="line"/>
      <point x="121" y="512" type="line"/>
      <point x="185" y="512" type="line"/>
      <point x="185" y="608" type="line"/>
      <point x="89" y="608" type="line"/>
      <point x="89" y="32" type="line"/>
    </contour>
    <contour>
      <point x="601" y="512" type="line"/>
      <point x="601" y="32" type="line"/>
      <point x="633" y="32" type="line"/>
      <point x="633" y="608" type="line"/>
      <point x="537" y="608" type="line"/>
      <point x="537" y="512" type="line"/>
    </contour>
    <contour>
      <point x="345" y="96" type="line"/>
      <point x="345" y="32" type="line"/>
      <point x="377" y="32" type="line"/>
      <point x="377" y="96" type="line"/>
      <point x="409" y="96" type="line"/>
      <point x="409" y="128" type="line"/>
      <point x="313" y="128" type="line"/>
      <point x="313" y="96" type="line"/>
    </contour>
    <contour>
      <point x="441" y="192" type="line"/>
      <point x="441" y="256" type="line"/>
      <point x="409" y="256" type="line"/>
      <point x="409" y="192" type="line"/>
    </contour>
    <contour>
      <point x="313" y="192" type="line"/>
      <point x="313" y="256" type="line"/>
      <point x="281" y="256" type="line"/>
      <point x="281" y="192" type="line"/>
    </contour>
    <contour>
      <point x="281" y="320" type="line"/>
      <point x="281" y="352" type="line"/>
      <point x="249" y="352" type="line"/>
      <point x="249" y="320" type="line"/>
    </contour>
    <contour>
      <point x="473" y="320" type="line"/>
      <point x="473" y="352" type="line"/>
      <point x="441" y="352" type="line"/>
      <point x="441" y="320" type="line"/>
    </contour>
  </outline>
</glyph>
<glyph name="N" format="1">
  <advance width="628"/>
  <unicode hex="004E"/>
  <outline>
    <contour>
      <point x="57" y="0" type="line"/>
      <point x="57" y="640" type="line"/>
      <point x="217" y="640" type="line"/>
      <point x="217" y="576" type="line"/>
      <point x="249" y="576" type="line"/>
      <point x="249" y="512" type="line"/>
      <point x="281" y="512" type="line"/>
      <point x="281" y="448" type="line"/>
      <point x="313" y="448" type="line"/>
      <point x="313" y="384" type="line"/>
      <point x="345" y="384" type="line"/>
      <point x="345" y="320" type="line"/>
      <point x="377" y="320" type="line"/>
      <point x="377" y="256" type="line"/>
      <point x="409" y="256" type="line"/>
      <point x="409" y="192" type="line"/>
      <point x="441" y="192" type="line"/>
      <point x="441" y="128" type="line"/>
      <point x="473" y="128" type="line"/>
      <point x="473" y="640" type="line"/>
      <point x="569" y="640" type="line"/>
      <point x="569" y="0" type="line"/>
      <point x="409" y="0" type="line"/>
      <point x="409" y="64" type="line"/>
      <point x="377" y="64" type="line"/>
      <point x="377" y="128" type="line"/>
      <point x="345" y="128" type="line"/>
      <point x="345" y="192" type="line"/>
      <point x="313" y="192" type="line"/>
      <point x="313" y="256" type="line"/>
      <point x="281" y="256" type="line"/>
      <point x="281" y="320" type="line"/>
      <point x="249" y="320" type="line"/>
      <point x="249" y="384" type="line"/>
      <point x="217" y="384" type="line"/>
      <point x="217" y="448" type="line"/>
      <point x="185" y="448" type="line"/>
      <point x="185" y="512" type="line"/>
      <point x="153" y="512" type="line"/>
      <point x="153" y="0" type="line"/>
    </contour>
    <contour>
      <point x="121" y="32" type="line"/>
      <point x="121" y="544" type="line"/>
      <point x="185" y="544" type="line"/>
      <point x="185" y="608" type="line"/>
      <point x="89" y="608" type="line"/>
      <point x="89" y="32" type="line"/>
    </contour>
    <contour>
      <point x="441" y="32" type="line"/>
      <point x="537" y="32" type="line"/>
      <point x="537" y="608" type="line"/>
      <point x="505" y="608" type="line"/>
      <point x="505" y="96" type="line"/>
      <point x="441" y="96" type="line"/>
    </contour>
  </outline>
</glyph>
<glyph name="P" format="1">
  <advance width="564"/>
  <unicode hex="0050"/>
  <outline>
    <contour>
      <point x="377" y="384" type="line"/>
      <point x="377" y="416" type="line"/>
      <point x="409" y="416" type="line"/>
      <point x="409" y="512" type="line"/>
      <point x="377" y="512" type="line"/>
      <point x="377" y="544" type="line"/>
      <point x="153" y="544" type="line"/>
      <point x="153" y="384" type="line"/>
    </contour>
    <contour>
      <point x="57" y="0" type="line"/>
      <point x="57" y="640" type="line"/>
      <point x="409" y="640" type="line"/>
      <point x="409" y="608" type="line"/>
      <point x="441" y="608" type="line"/>
      <point x="441" y="576" type="line"/>
      <point x="473" y="576" type="line"/>
      <point x="473" y="544" type="line"/>
      <point x="505" y="544" type="line"/>
      <point x="505" y="384" type="line"/>
      <point x="473" y="384" type="line"/>
      <point x="473" y="352" type="line"/>
      <point x="441" y="352" type="line"/>
      <point x="441" y="320" type="line"/>
      <point x="409" y="320" type="line"/>
      <point x="409" y="288" type="line"/>
      <point x="153" y="288" type="line"/>
      <point x="153" y="0" type="line"/>
    </contour>
    <contour>
      <point x="121" y="352" type="line"/>
      <point x="121" y="576" type="line"/>
      <point x="377" y="576" type="line"/>
      <point x="377" y="608" type="line"/>
      <point x="89" y="608" type="line"/>
      <point x="89" y="32" type="line"/>
      <point x="121" y="32" type="line"/>
      <point x="121" y="320" type="line"/>
      <point x="377" y="320" type="line"/>
      <point x="377" y="352" type="line"/>
    </contour>
    <contour>
      <point x="473" y="416" type="line"/>
      <point x="473" y="512" type="line"/>
      <point x="441" y="512" type="line"/>
      <point x="441" y="416" type="line"/>
    </contour>
  </outline>
</glyph>
<glyph name="Q" format="1">
  <advance width="698"/>
  <unicode hex="0051"/>
  <outline>
    <contour>
      <point x="396" y="96" type="line"/>
      <point x="396" y="128" type="line"/>
      <point x="460" y="128" type="line"/>
      <point x="460" y="160" type="line"/>
      <point x="492" y="160" type="line"/>
      <point x="492" y="192" type="line"/>
      <point x="524" y="192" type="line"/>
      <point x="524" y="256" type="line"/>
      <point x="556" y="256" type="line"/>
      <point x="556" y="384" type="line"/>
      <point x="524" y="384" type="line"/>
      <point x="524" y="448" type="line"/>
      <point x="492" y="448" type="line"/>
      <point x="492" y="480" type="line"/>
      <point x="460" y="480" type="line"/>
      <point x="460" y="512" type="line"/>
      <point x="396" y="512" type="line"/>
      <point x="396" y="544" type="line"/>
      <point x="300" y="544" type="line"/>
      <point x="300" y="512" type="line"/>
      <point x="236" y="512" type="line"/>
      <point x="236" y="480" type="line"/>
      <point x="204" y="480" type="line"/>
      <point x="204" y="448" type="line"/>
      <point x="172" y="448" type="line"/>
      <point x="172" y="384" type="line"/>
      <point x="140" y="384" type="line"/>
      <point x="140" y="256" type="line"/>
      <point x="172" y="256" type="line"/>
      <point x="172" y="192" type="line"/>
      <point x="204" y="192" type="line"/>
      <point x="204" y="160" type="line"/>
      <point x="236" y="160" type="line"/>
      <point x="236" y="128" type="line"/>
      <point x="300" y="128" type="line"/>
      <point x="300" y="96" type="line"/>
    </contour>
    <contour>
      <point x="364" y="-128" type="line"/>
      <point x="364" y="-96" type="line"/>
      <point x="332" y="-96" type="line"/>
      <point x="332" y="-64" type="line"/>
      <point x="300" y="-64" type="line"/>
      <point x="300" y="0" type="line"/>
      <point x="268" y="0" type="line"/>
      <point x="268" y="32" type="line"/>
      <point x="172" y="32" type="line"/>
      <point x="172" y="64" type="line"/>
      <point x="140" y="64" type="line"/>
      <point x="140" y="96" type="line"/>
      <point x="108" y="96" type="line"/>
      <point x="108" y="128" type="line"/>
      <point x="76" y="128" type="line"/>
      <point x="76" y="192" type="line"/>
      <point x="44" y="192" type="line"/>
      <point x="44" y="448" type="line"/>
      <point x="76" y="448" type="line"/>
      <point x="76" y="512" type="line"/>
      <point x="108" y="512" type="line"/>
      <point x="108" y="544" type="line"/>
      <point x="140" y="544" type="line"/>
      <point x="140" y="576" type="line"/>
      <point x="172" y="576" type="line"/>
      <point x="172" y="608" type="line"/>
      <point x="268" y="608" type="line"/>
      <point x="268" y="640" type="line"/>
      <point x="428" y="640" type="line"/>
      <point x="428" y="608" type="line"/>
      <point x="524" y="608" type="line"/>
      <point x="524" y="576" type="line"/>
      <point x="556" y="576" type="line"/>
      <point x="556" y="544" type="line"/>
      <point x="588" y="544" type="line"/>
      <point x="588" y="512" type="line"/>
      <point x="620" y="512" type="line"/>
      <point x="620" y="448" type="line"/>
      <point x="652" y="448" type="line"/>
      <point x="652" y="192" type="line"/>
      <point x="620" y="192" type="line"/>
      <point x="620" y="128" type="line"/>
      <point x="588" y="128" type="line"/>
      <point x="588" y="96" type="line"/>
      <point x="556" y="96" type="line"/>
      <point x="556" y="64" type="line"/>
      <point x="524" y="64" type="line"/>
      <point x="524" y="32" type="line"/>
      <point x="428" y="32" type="line"/>
      <point x="428" y="0" type="line"/>
      <point x="396" y="0" type="line"/>
      <point x="396" y="-32" type="line"/>
      <point x="460" y="-32" type="line"/>
      <point x="460" y="-128" type="line"/>
    </contour>
    <contour>
      <point x="620" y="224" type="line"/>
      <point x="620" y="416" type="line"/>
      <point x="588" y="416" type="line"/>
      <point x="588" y="480" type="line"/>
      <point x="556" y="480" type="line"/>
      <point x="556" y="512" type="line"/>
      <point x="524" y="512" type="line"/>
      <point x="524" y="544" type="line"/>
      <point x="492" y="544" type="line"/>
      <point x="492" y="576" type="line"/>
      <point x="428" y="576" type="line"/>
      <point x="428" y="544" type="line"/>
      <point x="492" y="544" type="line"/>
      <point x="492" y="512" type="line"/>
      <point x="524" y="512" type="line"/>
      <point x="524" y="480" type="line"/>
      <point x="556" y="480" type="line"/>
      <point x="556" y="416" type="line"/>
      <point x="588" y="416" type="line"/>
      <point x="588" y="224" type="line"/>
    </contour>
    <contour>
      <point x="268" y="64" type="line"/>
      <point x="268" y="96" type="line"/>
      <point x="204" y="96" type="line"/>
      <point x="204" y="128" type="line"/>
      <point x="172" y="128" type="line"/>
      <point x="172" y="160" type="line"/>
      <point x="140" y="160" type="line"/>
      <point x="140" y="224" type="line"/>
      <point x="108" y="224" type="line"/>
      <point x="108" y="416" type="line"/>
      <point x="76" y="416" type="line"/>
      <point x="76" y="224" type="line"/>
      <point x="108" y="224" type="line"/>
      <point x="108" y="160" type="line"/>
      <point x="140" y="160" type="line"/>
      <point x="140" y="128" type="line"/>
      <point x="172" y="128" type="line"/>
      <point x="172" y="96" type="line"/>
      <point x="204" y="96" type="line"/>
      <point x="204" y="64" type="line"/>
    </contour>
    <contour>
      <point x="364" y="32" type="line"/>
      <point x="396" y="32" type="line"/>
      <point x="396" y="64" type="line"/>
      <point x="300" y="64" type="line"/>
      <point x="300" y="32" type="line"/>
      <point x="332" y="32" type="line"/>
      <point x="332" y="-32" type="line"/>
      <point x="364" y="-32" type="line"/>
    </contour>
    <contour>
      <point x="396" y="608" type="line"/>
      <point x="300" y="608" type="line"/>
      <point x="300" y="576" type="line"/>
      <point x="396" y="576" type="line"/>
    </contour>
    <contour>
      <point x="204" y="544" type="line"/>
      <point x="268" y="544" type="line"/>
      <point x="268" y="576" type="line"/>
      <point x="204" y="576" type="line"/>
    </contour>
    <contour>
      <point x="108" y="480" type="line"/>
      <point x="108" y="416" type="line"/>
      <point x="140" y="416" type="line"/>
      <point x="140" y="480" type="line"/>
    </contour>
    <contour>
      <point x="588" y="160" type="line"/>
      <point x="588" y="224" type="line"/>
      <point x="556" y="224" type="line"/>
      <point x="556" y="160" type="line"/>
    </contour>
    <contour>
      <point x="492" y="64" type="line"/>
      <point x="492" y="96" type="line"/>
      <point x="428" y="96" type="line"/>
      <point x="428" y="64" type="line"/>
    </contour>
    <contour>
      <point x="428" y="-96" type="line"/>
      <point x="428" y="-64" type="line"/>
      <point x="396" y="-64" type="line"/>
      <point x="396" y="-96" type="line"/>
    </contour>
    <contour>
      <point x="556" y="128" type="line"/>
      <point x="556" y="160" type="line"/>
      <point x="524" y="160" type="line"/>
      <point x="524" y="128" type="line"/>
    </contour>
    <contour>
      <point x="140" y="512" type="line"/>
      <point x="140" y="480" type="line"/>
      <point x="172" y="480" type="line"/>
      <point x="172" y="512" type="line"/>
    </contour>
    <contour>
      <point x="524" y="96" type="line"/>
      <point x="524" y="128" type="line"/>
      <point x="492" y="128" type="line"/>
      <point x="492" y="96" type="line"/>
    </contour>
    <contour>
      <point x="172" y="544" type="line"/>
      <point x="172" y="512" type="line"/>
      <point x="204" y="512" type="line"/>
      <point x="204" y="544" type="line"/>
    </contour>
  </outline>
</glyph>
<glyph name="R" format="1">
  <advance width="617"/>
  <unicode hex="0052"/>
  <outline>
    <contour>
      <point x="377" y="384" type="line"/>
      <point x="377" y="416" type="line"/>
      <point x="409" y="416" type="line"/>
      <point x="409" y="512" type="line"/>
      <point x="377" y="512" type="line"/>
      <point x="377" y="544" type="line"/>
      <point x="153" y="544" type="line"/>
      <point x="153" y="384" type="line"/>
    </contour>
    <contour>
      <point x="57" y="0" type="line"/>
      <point x="57" y="640" type="line"/>
      <point x="409" y="640" type="line"/>
      <point x="409" y="608" type="line"/>
      <point x="441" y="608" type="line"/>
      <point x="441" y="576" type="line"/>
      <point x="473" y="576" type="line"/>
      <point x="473" y="544" type="line"/>
      <point x="505" y="544" type="line"/>
      <point x="505" y="384" type="line"/>
      <point x="473" y="384" type="line"/>
      <point x="473" y="352" type="line"/>
      <point x="441" y="352" type="line"/>
      <point x="441" y="320" type="line"/>
      <point x="409" y="320" type="line"/>
      <point x="409" y="288" type="line"/>
      <point x="313" y="288" type="line"/>
      <point x="313" y="256" type="line"/>
      <point x="345" y="256" type="line"/>
      <point x="345" y="224" type="line"/>
      <point x="377" y="224" type="line"/>
      <point x="377" y="192" type="line"/>
      <point x="409" y="192" type="line"/>
      <point x="409" y="160" type="line"/>
      <point x="441" y="160" type="line"/>
      <point x="441" y="128" type="line"/>
      <point x="473" y="128" type="line"/>
      <point x="473" y="96" type="line"/>
      <point x="505" y="96" type="line"/>
      <point x="505" y="64" type="line"/>
      <point x="537" y="64" type="line"/>
      <point x="537" y="32" type="line"/>
      <point x="569" y="32" type="line"/>
      <point x="569" y="0" type="line"/>
      <point x="441" y="0" type="line"/>
      <point x="441" y="32" type="line"/>
      <point x="409" y="32" type="line"/>
      <point x="409" y="64" type="line"/>
      <point x="377" y="64" type="line"/>
      <point x="377" y="96" type="line"/>
      <point x="345" y="96" type="line"/>
      <point x="345" y="128" type="line"/>
      <point x="313" y="128" type="line"/>
      <point x="313" y="160" type="line"/>
      <point x="281" y="160" type="line"/>
      <point x="281" y="192" type="line"/>
      <point x="249" y="192" type="line"/>
      <point x="249" y="224" type="line"/>
      <point x="217" y="224" type="line"/>
      <point x="217" y="256" type="line"/>
      <point x="185" y="256" type="line"/>
      <point x="185" y="288" type="line"/>
      <point x="153" y="288" type="line"/>
      <point x="153" y="0" type="line"/>
    </contour>
    <contour>
      <point x="121" y="352" type="line"/>
      <point x="121" y="576" type="line"/>
      <point x="377" y="576" type="line"/>
      <point x="377" y="608" type="line"/>
      <point x="89" y="608" type="line"/>
      <point x="89" y="32" type="line"/>
      <point x="121" y="32" type="line"/>
      <point x="121" y="320" type="line"/>
      <point x="217" y="320" type="line"/>
      <point x="217" y="288" type="line"/>
      <point x="249" y="288" type="line"/>
      <point x="249" y="256" type="line"/>
      <point x="281" y="256" type="line"/>
      <point x="281" y="320" type="line"/>
      <point x="377" y="320" type="line"/>
      <point x="377" y="352" type="line"/>
    </contour>
    <contour>
      <point x="473" y="416" type="line"/>
      <point x="473" y="512" type="line"/>
      <point x="441" y="512" type="line"/>
      <point x="441" y="416" type="line"/>
    </contour>
  </outline>
</glyph>
<glyph name="S" format="1">
  <advance width="515"/>
  <unicode hex="0053"/>
  <outline>
    <contour>
      <point x="180" y="0" type="line"/>
      <point x="180" y="32" type="line"/>
      <point x="116" y="32" type="line"/>
      <point x="116" y="64" type="line"/>
      <point x="84" y="64" type="line"/>
      <point x="84" y="96" type="line"/>
      <point x="52" y="96" type="line"/>
      <point x="52" y="160" type="line"/>
      <point x="148" y="160" type="line"/>
      <point x="148" y="128" type="line"/>
      <point x="180" y="128" type="line"/>
      <point x="180" y="96" type="line"/>
      <point x="340" y="96" type="line"/>
      <point x="340" y="128" type="line"/>
      <point x="372" y="128" type="line"/>
      <point x="372" y="224" type="line"/>
      <point x="340" y="224" type="line"/>
      <point x="340" y="256" type="line"/>
      <point x="308" y="256" type="line"/>
      <point x="308" y="288" type="line"/>
      <point x="212" y="288" type="line"/>
      <point x="212" y="320" type="line"/>
      <point x="116" y="320" type="line"/>
      <point x="116" y="352" type="line"/>
      <point x="84" y="352" type="line"/>
      <point x="84" y="384" type="line"/>
      <point x="52" y="384" type="line"/>
      <point x="52" y="544" type="line"/>
      <point x="84" y="544" type="line"/>
      <point x="84" y="576" type="line"/>
      <point x="116" y="576" type="line"/>
      <point x="116" y="608" type="line"/>
      <point x="148" y="608" type="line"/>
      <point x="148" y="640" type="line"/>
      <point x="372" y="640" type="line"/>
      <point x="372" y="608" type="line"/>
      <point x="404" y="608" type="line"/>
      <point x="404" y="576" type="line"/>
      <point x="436" y="576" type="line"/>
      <point x="436" y="512" type="line"/>
      <point x="340" y="512" type="line"/>
      <point x="340" y="544" type="line"/>
      <point x="180" y="544" type="line"/>
      <point x="180" y="512" type="line"/>
      <point x="148" y="512" type="line"/>
      <point x="148" y="416" type="line"/>
      <point x="212" y="416" type="line"/>
      <point x="212" y="384" type="line"/>
      <point x="308" y="384" type="line"/>
      <point x="308" y="352" type="line"/>
      <point x="372" y="352" type="line"/>
      <point x="372" y="320" type="line"/>
      <point x="436" y="320" type="line"/>
      <point x="436" y="256" type="line"/>
      <point x="468" y="256" type="line"/>
      <point x="468" y="96" type="line"/>
      <point x="436" y="96" type="line"/>
      <point x="436" y="64" type="line"/>
      <point x="404" y="64" type="line"/>
      <point x="404" y="32" type="line"/>
      <point x="340" y="32" type="line"/>
      <point x="340" y="0" type="line"/>
    </contour>
    <contour>
      <point x="340" y="608" type="line"/>
      <point x="180" y="608" type="line"/>
      <point x="180" y="576" type="line"/>
      <point x="340" y="576" type="line"/>
    </contour>
    <contour>
      <point x="84" y="512" type="line"/>
      <point x="84" y="416" type="line"/>
      <point x="116" y="416" type="line"/>
      <point x="116" y="512" type="line"/>
    </contour>
    <contour>
      <point x="436" y="128" type="line"/>
      <point x="436" y="224" type="line"/>
      <point x="404" y="224" type="line"/>
      <point x="404" y="128" type="line"/>
    </contour>
    <contour>
      <point x="308" y="32" type="line"/>
      <point x="308" y="64" type="line"/>
      <point x="212" y="64" type="line"/>
      <point x="212" y="32" type="line"/>
    </contour>
    <contour>
      <point x="276" y="352" type="line"/>
      <point x="244" y="352" type="line"/>
      <point x="244" y="320" type="line"/>
      <point x="276" y="320" type="line"/>
    </contour>
    <contour>
      <point x="180" y="384" type="line"/>
      <point x="148" y="384" type="line"/>
      <point x="148" y="352" type="line"/>
      <point x="180" y="352" type="line"/>
    </contour>
    <contour>
      <point x="404" y="288" type="line"/>
      <point x="372" y="288" type="line"/>
      <point x="372" y="256" type="line"/>
      <point x="404" y="256" type="line"/>
    </contour>
  </outline>
</glyph>
<glyph name="T" format="1">
  <advance width="550"/>
  <unicode hex="0054"/>
  <outline>
    <contour>
      <point x="224" y="0" type="line"/>
      <point x="224" y="544" type="line"/>
      <point x="0" y="544" type="line"/>
      <point x="0" y="640" type="line"/>
      <point x="544" y="640" type="line"/>
      <point x="544" y="544" type="line"/>
      <point x="320" y="544" type="line"/>
      <point x="320" y="0" type="line"/>
    </contour>
    <contour>
      <point x="288" y="32" type="line"/>
      <point x="288" y="576" type="line"/>
      <point x="512" y="576" type="line"/>
      <point x="512" y="608" type="line"/>
      <point x="32" y="608" type="line"/>
      <point x="32" y="576" type="line"/>
      <point x="256" y="576" type="line"/>
      <point x="256" y="32" type="line"/>
    </contour>
  </outline>
</glyph>
<glyph name="U" format="1">
  <advance width="594"/>
  <unicode hex="0055"/>
  <outline>
    <contour>
      <point x="183" y="0" type="line"/>
      <point x="183" y="32" type="line"/>
      <point x="119" y="32" type="line"/>
      <point x="119" y="64" type="line"/>
      <point x="87" y="64" type="line"/>
      <point x="87" y="128" type="line"/>
      <point x="55" y="128" type="line"/>
      <point x="55" y="640" type="line"/>
      <point x="151" y="640" type="line"/>
      <point x="151" y="192" type="line"/>
      <point x="183" y="192" type="line"/>
      <point x="183" y="128" type="line"/>
      <point x="215" y="128" type="line"/>
      <point x="215" y="96" type="line"/>
      <point x="375" y="96" type="line"/>
      <point x="375" y="128" type="line"/>
      <point x="407" y="128" type="line"/>
      <point x="407" y="192" type="line"/>
      <point x="439" y="192" type="line"/>
      <point x="439" y="640" type="line"/>
      <point x="535" y="640" type="line"/>
      <point x="535" y="128" type="line"/>
      <point x="503" y="128" type="line"/>
      <point x="503" y="64" type="line"/>
      <point x="471" y="64" type="line"/>
      <point x="471" y="32" type="line"/>
      <point x="407" y="32" type="line"/>
      <point x="407" y="0" type="line"/>
    </contour>
    <contour>
      <point x="183" y="96" type="line"/>
      <point x="151" y="96" type="line"/>
      <point x="151" y="160" type="line"/>
      <point x="119" y="160" type="line"/>
      <point x="119" y="608" type="line"/>
      <point x="87" y="608" type="line"/>
      <point x="87" y="160" type="line"/>
      <point x="119" y="160" type="line"/>
      <point x="119" y="96" type="line"/>
      <point x="151" y="96" type="line"/>
      <point x="151" y="64" type="line"/>
      <point x="183" y="64" type="line"/>
    </contour>
    <contour>
      <point x="503" y="160" type="line"/>
      <point x="503" y="608" type="line"/>
      <point x="471" y="608" type="line"/>
      <point x="471" y="160" type="line"/>
    </contour>
    <contour>
      <point x="375" y="32" type="line"/>
      <point x="375" y="64" type="line"/>
      <point x="215" y="64" type="line"/>
      <point x="215" y="32" type="line"/>
    </contour>
    <contour>
      <point x="471" y="96" type="line"/>
      <point x="471" y="160" type="line"/>
      <point x="439" y="160" type="line"/>
      <point x="439" y="96" type="line"/>
    </contour>
    <contour>
      <point x="439" y="64" type="line"/>
      <point x="439" y="96" type="line"/>
      <point x="407" y="96" type="line"/>
      <point x="407" y="64" type="line"/>
    </contour>
  </outline>
</glyph>
<glyph name="W" format="1">
  <advance width="826"/>
  <unicode hex="0057"/>
  <outline>
    <contour>
      <point x="191" y="0" type="line"/>
      <point x="191" y="64" type="line"/>
      <point x="159" y="64" type="line"/>
      <point x="159" y="160" type="line"/>
      <point x="127" y="160" type="line"/>
      <point x="127" y="288" type="line"/>
      <point x="95" y="288" type="line"/>
      <point x="95" y="416" type="line"/>
      <point x="63" y="416" type="line"/>
      <point x="63" y="512" type="line"/>
      <point x="31" y="512" type="line"/>
      <point x="31" y="640" type="line"/>
      <point x="127" y="640" type="line"/>
      <point x="127" y="512" type="line"/>
      <point x="159" y="512" type="line"/>
      <point x="159" y="384" type="line"/>
      <point x="191" y="384" type="line"/>
      <point x="191" y="288" type="line"/>
      <point x="223" y="288" type="line"/>
      <point x="223" y="160" type="line"/>
      <point x="255" y="160" type="line"/>
      <point x="255" y="288" type="line"/>
      <point x="287" y="288" type="line"/>
      <point x="287" y="384" type="line"/>
      <point x="319" y="384" type="line"/>
      <point x="319" y="512" type="line"/>
      <point x="351" y="512" type="line"/>
      <point x="351" y="640" type="line"/>
      <point x="447" y="640" type="line"/>
      <point x="447" y="512" type="line"/>
      <point x="479" y="512" type="line"/>
      <point x="479" y="384" type="line"/>
      <point x="511" y="384" type="line"/>
      <point x="511" y="288" type="line"/>
      <point x="543" y="288" type="line"/>
      <point x="543" y="160" type="line"/>
      <point x="575" y="160" type="line"/>
      <point x="575" y="288" type="line"/>
      <point x="607" y="288" type="line"/>
      <point x="607" y="384" type="line"/>
      <point x="639" y="384" type="line"/>
      <point x="639" y="512" type="line"/>
      <point x="671" y="512" type="line"/>
      <point x="671" y="640" type="line"/>
      <point x="767" y="640" type="line"/>
      <point x="767" y="512" type="line"/>
      <point x="735" y="512" type="line"/>
      <point x="735" y="416" type="line"/>
      <point x="703" y="416" type="line"/>
      <point x="703" y="288" type="line"/>
      <point x="671" y="288" type="line"/>
      <point x="671" y="160" type="line"/>
      <point x="639" y="160" type="line"/>
      <point x="639" y="64" type="line"/>
      <point x="607" y="64" type="line"/>
      <point x="607" y="0" type="line"/>
      <point x="511" y="0" type="line"/>
      <point x="511" y="64" type="line"/>
      <point x="479" y="64" type="line"/>
      <point x="479" y="160" type="line"/>
      <point x="447" y="160" type="line"/>
      <point x="447" y="288" type="line"/>
      <point x="415" y="288" type="line"/>
      <point x="415" y="416" type="line"/>
      <point x="383" y="416" type="line"/>
      <point x="383" y="288" type="line"/>
      <point x="351" y="288" type="line"/>
      <point x="351" y="160" type="line"/>
      <point x="319" y="160" type="line"/>
      <point x="319" y="64" type="line"/>
      <point x="287" y="64" type="line"/>
      <point x="287" y="0" type="line"/>
    </contour>
    <contour>
      <point x="447" y="448" type="line"/>
      <point x="447" y="480" type="line"/>
      <point x="415" y="480" type="line"/>
      <point x="415" y="608" type="line"/>
      <point x="383" y="608" type="line"/>
      <point x="383" y="480" type="line"/>
      <point x="351" y="480" type="line"/>
      <point x="351" y="448" type="line"/>
    </contour>
    <contour>
      <point x="255" y="32" type="line"/>
      <point x="255" y="96" type="line"/>
      <point x="287" y="96" type="line"/>
      <point x="287" y="128" type="line"/>
      <point x="191" y="128" type="line"/>
      <point x="191" y="96" type="line"/>
      <point x="223" y="96" type="line"/>
      <point x="223" y="32" type="line"/>
    </contour>
    <contour>
      <point x="543" y="96" type="line"/>
      <point x="543" y="32" type="line"/>
      <point x="575" y="32" type="line"/>
      <point x="575" y="96" type="line"/>
      <point x="607" y="96" type="line"/>
      <point x="607" y="128" type="line"/>
      <point x="511" y="128" type="line"/>
      <point x="511" y="96" type="line"/>
    </contour>
    <contour>
      <point x="95" y="608" type="line"/>
      <point x="63" y="608" type="line"/>
      <point x="63" y="544" type="line"/>
      <point x="95" y="544" type="line"/>
    </contour>
    <contour>
      <point x="319" y="192" type="line"/>
      <point x="319" y="256" type="line"/>
      <point x="287" y="256" type="line"/>
      <point x="287" y="192" type="line"/>
    </contour>
    <contour>
      <point x="639" y="192" type="line"/>
      <point x="639" y="256" type="line"/>
      <point x="607" y="256" type="line"/>
      <point x="607" y="192" type="line"/>
    </contour>
    <contour>
      <point x="735" y="544" type="line"/>
      <point x="735" y="608" type="line"/>
      <point x="703" y="608" type="line"/>
      <point x="703" y="544" type="line"/>
    </contour>
    <contour>
      <point x="191" y="256" type="line"/>
      <point x="159" y="256" type="line"/>
      <point x="159" y="192" type="line"/>
      <point x="191" y="192" type="line"/>
    </contour>
    <contour>
      <point x="511" y="192" type="line"/>
      <point x="511" y="256" type="line"/>
      <point x="479" y="256" type="line"/>
      <point x="479" y="192" type="line"/>
    </contour>
    <contour>
      <point x="671" y="320" type="line"/>
      <point x="671" y="352" type="line"/>
      <point x="639" y="352" type="line"/>
      <point x="639" y="320" type="line"/>
    </contour>
    <contour>
      <point x="127" y="480" type="line"/>
      <point x="95" y="480" type="line"/>
      <point x="95" y="448" type="line"/>
      <point x="127" y="448" type="line"/>
    </contour>
    <contour>
      <point x="479" y="320" type="line"/>
      <point x="479" y="352" type="line"/>
      <point x="447" y="352" type="line"/>
      <point x="447" y="320" type="line"/>
    </contour>
    <contour>
      <point x="351" y="320" type="line"/>
      <point x="351" y="352" type="line"/>
      <point x="319" y="352" type="line"/>
      <point x="319" y="320" type="line"/>
    </contour>
    <contour>
      <point x="159" y="352" type="line"/>
      <point x="127" y="352" type="line"/>
      <point x="127" y="320" type="line"/>
      <point x="159" y="320" type="line"/>
    </contour>
    <contour>
      <point x="703" y="448" type="line"/>
      <point x="703" y="480" type="line"/>
      <point x="671" y="480" type="line"/>
      <point x="671" y="448" type="line"/>
    </contour>
  </outline>
</glyph>
<glyph name="X" format="1">
  <advance width="674"/>
  <unicode hex="0058"/>
  <outline>
    <contour>
      <point x="39" y="0" type="line"/>
      <point x="39" y="64" type="line"/>
      <point x="71" y="64" type="line"/>
      <point x="71" y="96" type="line"/>
      <point x="103" y="96" type="line"/>
      <point x="103" y="128" type="line"/>
      <point x="135" y="128" type="line"/>
      <point x="135" y="160" type="line"/>
      <point x="167" y="160" type="line"/>
      <point x="167" y="224" type="line"/>
      <point x="199" y="224" type="line"/>
      <point x="199" y="256" type="line"/>
      <point x="231" y="256" type="line"/>
      <point x="231" y="288" type="line"/>
      <point x="263" y="288" type="line"/>
      <point x="263" y="352" type="line"/>
      <point x="231" y="352" type="line"/>
      <point x="231" y="384" type="line"/>
      <point x="199" y="384" type="line"/>
      <point x="199" y="416" type="line"/>
      <point x="167" y="416" type="line"/>
      <point x="167" y="480" type="line"/>
      <point x="135" y="480" type="line"/>
      <point x="135" y="512" type="line"/>
      <point x="103" y="512" type="line"/>
      <point x="103" y="544" type="line"/>
      <point x="71" y="544" type="line"/>
      <point x="71" y="576" type="line"/>
      <point x="39" y="576" type="line"/>
      <point x="39" y="640" type="line"/>
      <point x="167" y="640" type="line"/>
      <point x="167" y="608" type="line"/>
      <point x="199" y="608" type="line"/>
      <point x="199" y="544" type="line"/>
      <point x="231" y="544" type="line"/>
      <point x="231" y="512" type="line"/>
      <point x="263" y="512" type="line"/>
      <point x="263" y="480" type="line"/>
      <point x="295" y="480" type="line"/>
      <point x="295" y="416" type="line"/>
      <point x="359" y="416" type="line"/>
      <point x="359" y="480" type="line"/>
      <point x="391" y="480" type="line"/>
      <point x="391" y="512" type="line"/>
      <point x="423" y="512" type="line"/>
      <point x="423" y="544" type="line"/>
      <point x="455" y="544" type="line"/>
      <point x="455" y="608" type="line"/>
      <point x="487" y="608" type="line"/>
      <point x="487" y="640" type="line"/>
      <point x="615" y="640" type="line"/>
      <point x="615" y="576" type="line"/>
      <point x="583" y="576" type="line"/>
      <point x="583" y="544" type="line"/>
      <point x="551" y="544" type="line"/>
      <point x="551" y="512" type="line"/>
      <point x="519" y="512" type="line"/>
      <point x="519" y="480" type="line"/>
      <point x="487" y="480" type="line"/>
      <point x="487" y="416" type="line"/>
      <point x="455" y="416" type="line"/>
      <point x="455" y="384" type="line"/>
      <point x="423" y="384" type="line"/>
      <point x="423" y="352" type="line"/>
      <point x="391" y="352" type="line"/>
      <point x="391" y="288" type="line"/>
      <point x="423" y="288" type="line"/>
      <point x="423" y="256" type="line"/>
      <point x="455" y="256" type="line"/>
      <point x="455" y="224" type="line"/>
      <point x="487" y="224" type="line"/>
      <point x="487" y="160" type="line"/>
      <point x="519" y="160" type="line"/>
      <point x="519" y="128" type="line"/>
      <point x="551" y="128" type="line"/>
      <point x="551" y="96" type="line"/>
      <point x="583" y="96" type="line"/>
      <point x="583" y="64" type="line"/>
      <point x="615" y="64" type="line"/>
      <point x="615" y="0" type="line"/>
      <point x="487" y="0" type="line"/>
      <point x="487" y="32" type="line"/>
      <point x="455" y="32" type="line"/>
      <point x="455" y="96" type="line"/>
      <point x="423" y="96" type="line"/>
      <point x="423" y="128" type="line"/>
      <point x="391" y="128" type="line"/>
      <point x="391" y="160" type="line"/>
      <point x="359" y="160" type="line"/>
      <point x="359" y="224" type="line"/>
      <point x="295" y="224" type="line"/>
      <point x="295" y="160" type="line"/>
      <point x="263" y="160" type="line"/>
      <point x="263" y="128" type="line"/>
      <point x="231" y="128" type="line"/>
      <point x="231" y="96" type="line"/>
      <point x="199" y="96" type="line"/>
      <point x="199" y="32" type="line"/>
      <point x="167" y="32" type="line"/>
      <point x="167" y="0" type="line"/>
    </contour>
    <contour>
      <point x="359" y="384" type="line"/>
      <point x="295" y="384" type="line"/>
      <point x="295" y="256" type="line"/>
      <point x="359" y="256" type="line"/>
    </contour>
    <contour>
      <point x="167" y="576" type="line"/>
      <point x="135" y="576" type="line"/>
      <point x="135" y="608" type="line"/>
      <point x="103" y="608" type="line"/>
      <point x="103" y="576" type="line"/>
      <point x="135" y="576" type="line"/>
      <point x="135" y="544" type="line"/>
      <point x="167" y="544" type="line"/>
    </contour>
    <contour>
      <point x="423" y="192" type="line"/>
      <point x="423" y="160" type="line"/>
      <point x="455" y="160" type="line"/>
      <point x="455" y="192" type="line"/>
      <point x="423" y="192" type="line"/>
      <point x="423" y="224" type="line"/>
      <point x="391" y="224" type="line"/>
      <point x="391" y="192" type="line"/>
    </contour>
    <contour>
      <point x="263" y="448" type="line"/>
      <point x="231" y="448" type="line"/>
      <point x="231" y="480" type="line"/>
      <point x="199" y="480" type="line"/>
      <point x="199" y="448" type="line"/>
      <point x="231" y="448" type="line"/>
      <point x="231" y="416" type="line"/>
      <point x="263" y="416" type="line"/>
    </contour>
    <contour>
      <point x="519" y="64" type="line"/>
      <point x="519" y="32" type="line"/>
      <point x="551" y="32" type="line"/>
      <point x="551" y="64" type="line"/>
      <point x="519" y="64" type="line"/>
      <point x="519" y="96" type="line"/>
      <point x="487" y="96" type="line"/>
      <point x="487" y="64" type="line"/>
    </contour>
    <contour>
      <point x="455" y="448" type="line"/>
      <point x="455" y="480" type="line"/>
      <point x="423" y="480" type="line"/>
      <point x="423" y="448" type="line"/>
    </contour>
    <contour>
      <point x="423" y="416" type="line"/>
      <point x="423" y="448" type="line"/>
      <point x="391" y="448" type="line"/>
      <point x="391" y="416" type="line"/>
    </contour>
    <contour>
      <point x="551" y="576" type="line"/>
      <point x="551" y="608" type="line"/>
      <point x="519" y="608" type="line"/>
      <point x="519" y="576" type="line"/>
    </contour>
    <contour>
      <point x="231" y="160" type="line"/>
      <point x="231" y="192" type="line"/>
      <point x="199" y="192" type="line"/>
      <point x="199" y="160" type="line"/>
    </contour>
    <contour>
      <point x="167" y="64" type="line"/>
      <point x="167" y="96" type="line"/>
      <point x="135" y="96" type="line"/>
      <point x="135" y="64" type="line"/>
    </contour>
    <contour>
      <point x="263" y="192" type="line"/>
      <point x="263" y="224" type="line"/>
      <point x="231" y="224" type="line"/>
      <point x="231" y="192" type="line"/>
    </contour>
    <contour>
      <point x="519" y="544" type="line"/>
      <point x="519" y="576" type="line"/>
      <point x="487" y="576" type="line"/>
      <point x="487" y="544" type="line"/>
    </contour>
    <contour>
      <point x="135" y="32" type="line"/>
      <point x="135" y="64" type="line"/>
      <point x="103" y="64" type="line"/>
      <point x="103" y="32" type="line"/>
    </contour>
  </outline>
</glyph>
<glyph name="Y" format="1">
  <advance width="601"/>
  <unicode hex="0059"/>
  <outline>
    <contour>
      <point x="252" y="0" type="line"/>
      <point x="252" y="224" type="line"/>
      <point x="220" y="224" type="line"/>
      <point x="220" y="288" type="line"/>
      <point x="188" y="288" type="line"/>
      <point x="188" y="352" type="line"/>
      <point x="156" y="352" type="line"/>
      <point x="156" y="416" type="line"/>
      <point x="124" y="416" type="line"/>
      <point x="124" y="480" type="line"/>
      <point x="92" y="480" type="line"/>
      <point x="92" y="544" type="line"/>
      <point x="60" y="544" type="line"/>
      <point x="60" y="608" type="line"/>
      <point x="28" y="608" type="line"/>
      <point x="28" y="640" type="line"/>
      <point x="156" y="640" type="line"/>
      <point x="156" y="576" type="line"/>
      <point x="188" y="576" type="line"/>
      <point x="188" y="512" type="line"/>
      <point x="220" y="512" type="line"/>
      <point x="220" y="448" type="line"/>
      <point x="252" y="448" type="line"/>
      <point x="252" y="384" type="line"/>
      <point x="284" y="384" type="line"/>
      <point x="284" y="320" type="line"/>
      <point x="316" y="320" type="line"/>
      <point x="316" y="384" type="line"/>
      <point x="348" y="384" type="line"/>
      <point x="348" y="448" type="line"/>
      <point x="380" y="448" type="line"/>
      <point x="380" y="512" type="line"/>
      <point x="412" y="512" type="line"/>
      <point x="412" y="576" type="line"/>
      <point x="444" y="576" type="line"/>
      <point x="444" y="640" type="line"/>
      <point x="572" y="640" type="line"/>
      <point x="572" y="608" type="line"/>
      <point x="540" y="608" type="line"/>
      <point x="540" y="544" type="line"/>
      <point x="508" y="544" type="line"/>
      <point x="508" y="480" type="line"/>
      <point x="476" y="480" type="line"/>
      <point x="476" y="416" type="line"/>
      <point x="444" y="416" type="line"/>
      <point x="444" y="352" type="line"/>
      <point x="412" y="352" type="line"/>
      <point x="412" y="288" type="line"/>
      <point x="380" y="288" type="line"/>
      <point x="380" y="224" type="line"/>
      <point x="348" y="224" type="line"/>
      <point x="348" y="0" type="line"/>
    </contour>
    <contour>
      <point x="316" y="32" type="line"/>
      <point x="316" y="256" type="line"/>
      <point x="348" y="256" type="line"/>
      <point x="348" y="288" type="line"/>
      <point x="252" y="288" type="line"/>
      <point x="252" y="256" type="line"/>
      <point x="284" y="256" type="line"/>
      <point x="284" y="32" type="line"/>
    </contour>
    <contour>
      <point x="156" y="544" type="line"/>
      <point x="124" y="544" type="line"/>
      <point x="124" y="512" type="line"/>
      <point x="156" y="512" type="line"/>
    </contour>
    <contour>
      <point x="188" y="480" type="line"/>
      <point x="156" y="480" type="line"/>
      <point x="156" y="448" type="line"/>
      <point x="188" y="448" type="line"/>
    </contour>
    <contour>
      <point x="220" y="416" type="line"/>
      <point x="188" y="416" type="line"/>
      <point x="188" y="384" type="line"/>
      <point x="220" y="384" type="line"/>
    </contour>
    <contour>
      <point x="252" y="352" type="line"/>
      <point x="220" y="352" type="line"/>
      <point x="220" y="320" type="line"/>
      <point x="252" y="320" type="line"/>
    </contour>
    <contour>
      <point x="412" y="384" type="line"/>
      <point x="412" y="416" type="line"/>
      <point x="380" y="416" type="line"/>
      <point x="380" y="384" type="line"/>
    </contour>
    <contour>
      <point x="508" y="576" type="line"/>
      <point x="508" y="608" type="line"/>
      <point x="476" y="608" type="line"/>
      <point x="476" y="576" type="line"/>
    </contour>
    <contour>
      <point x="476" y="512" type="line"/>
      <point x="476" y="544" type="line"/>
      <point x="444" y="544" type="line"/>
      <point x="444" y="512" type="line"/>
    </contour>
    <contour>
      <point x="444" y="448" type="line"/>
      <point x="444" y="480" type="line"/>
      <point x="412" y="480" type="line"/>
      <point x="412" y="448" type="line"/>
    </contour>
    <contour>
      <point x="124" y="608" type="line"/>
      <point x="92" y="608" type="line"/>
      <point x="92" y="576" type="line"/>
      <point x="124" y="576" type="line"/>
    </contour>
    <contour>
      <point x="380" y="320" type="line"/>
      <point x="380" y="352" type="line"/>
      <point x="348" y="352" type="line"/>
      <point x="348" y="320" type="line"/>
    </contour>
  </outline>
</glyph>
<glyph name="Z" format="1">
  <advance width="582"/>
  <unicode hex="005A"/>
  <outline>
    <contour>
      <point x="43" y="0" type="line"/>
      <point x="43" y="96" type="line"/>
      <point x="75" y="96" type="line"/>
      <point x="75" y="128" type="line"/>
      <point x="107" y="128" type="line"/>
      <point x="107" y="160" type="line"/>
      <point x="139" y="160" type="line"/>
      <point x="139" y="224" type="line"/>
      <point x="171" y="224" type="line"/>
      <point x="171" y="256" type="line"/>
      <point x="203" y="256" type="line"/>
      <point x="203" y="288" type="line"/>
      <point x="235" y="288" type="line"/>
      <point x="235" y="352" type="line"/>
      <point x="267" y="352" type="line"/>
      <point x="267" y="384" type="line"/>
      <point x="299" y="384" type="line"/>
      <point x="299" y="416" type="line"/>
      <point x="331" y="416" type="line"/>
      <point x="331" y="480" type="line"/>
      <point x="363" y="480" type="line"/>
      <point x="363" y="512" type="line"/>
      <point x="395" y="512" type="line"/>
      <point x="395" y="544" type="line"/>
      <point x="43" y="544" type="line"/>
      <point x="43" y="640" type="line"/>
      <point x="523" y="640" type="line"/>
      <point x="523" y="512" type="line"/>
      <point x="491" y="512" type="line"/>
      <point x="491" y="480" type="line"/>
      <point x="459" y="480" type="line"/>
      <point x="459" y="416" type="line"/>
      <point x="427" y="416" type="line"/>
      <point x="427" y="384" type="line"/>
      <point x="395" y="384" type="line"/>
      <point x="395" y="352" type="line"/>
      <point x="363" y="352" type="line"/>
      <point x="363" y="288" type="line"/>
      <point x="331" y="288" type="line"/>
      <point x="331" y="256" type="line"/>
      <point x="299" y="256" type="line"/>
      <point x="299" y="224" type="line"/>
      <point x="267" y="224" type="line"/>
      <point x="267" y="192" type="line"/>
      <point x="235" y="192" type="line"/>
      <point x="235" y="128" type="line"/>
      <point x="203" y="128" type="line"/>
      <point x="203" y="96" type="line"/>
      <point x="523" y="96" type="line"/>
      <point x="523" y="0" type="line"/>
    </contour>
    <contour>
      <point x="491" y="32" type="line"/>
      <point x="491" y="64" type="line"/>
      <point x="171" y="64" type="line"/>
      <point x="171" y="128" type="line"/>
      <point x="139" y="128" type="line"/>
      <point x="139" y="96" type="line"/>
      <point x="107" y="96" type="line"/>
      <point x="107" y="64" type="line"/>
      <point x="75" y="64" type="line"/>
      <point x="75" y="32" type="line"/>
    </contour>
    <contour>
      <point x="459" y="512" type="line"/>
      <point x="459" y="544" type="line"/>
      <point x="491" y="544" type="line"/>
      <point x="491" y="608" type="line"/>
      <point x="75" y="608" type="line"/>
      <point x="75" y="576" type="line"/>
      <point x="427" y="576" type="line"/>
      <point x="427" y="512" type="line"/>
    </contour>
    <contour>
      <point x="427" y="448" type="line"/>
      <point x="427" y="480" type="line"/>
      <point x="395" y="480" type="line"/>
      <point x="395" y="448" type="line"/>
    </contour>
    <contour>
      <point x="395" y="416" type="line"/>
      <point x="395" y="448" type="line"/>
      <point x="363" y="448" type="line"/>
      <point x="363" y="416" type="line"/>
    </contour>
    <contour>
      <point x="331" y="320" type="line"/>
      <point x="331" y="352" type="line"/>
      <point x="299" y="352" type="line"/>
      <point x="299" y="320" type="line"/>
    </contour>
    <contour>
      <point x="299" y="288" type="line"/>
      <point x="299" y="320" type="line"/>
      <point x="267" y="320" type="line"/>
      <point x="267" y="288" type="line"/>
    </contour>
    <contour>
      <point x="203" y="160" type="line"/>
      <point x="203" y="192" type="line"/>
      <point x="171" y="192" type="line"/>
      <point x="171" y="160" type="line"/>
    </contour>
  </outline>
</glyph>
<glyph name="bracketleft" format="1">
  <advance width="315"/>
  <unicode hex="005B"/>
  <outline>
    <contour>
      <point x="58" y="-96" type="line"/>
      <point x="58" y="736" type="line"/>
      <point x="250" y="736" type="line"/>
      <point x="250" y="672" type="line"/>
      <point x="122" y="672" type="line"/>
      <point x="122" y="-32" type="line"/>
      <point x="250" y="-32" type="line"/>
      <point x="250" y="-96" type="line"/>
    </contour>
  </outline>
</glyph>
<glyph name="b" format="1">
  <advance width="510"/>
  <unicode hex="0062"/>
  <outline>
    <contour>
      <point x="345" y="96" type="line"/>
      <point x="345" y="128" type="line"/>
      <point x="377" y="128" type="line"/>
      <point x="377" y="352" type="line"/>
      <point x="345" y="352" type="line"/>
      <point x="345" y="384" type="line"/>
      <point x="217" y="384" type="line"/>
      <point x="217" y="352" type="line"/>
      <point x="185" y="352" type="line"/>
      <point x="185" y="320" type="line"/>
      <point x="153" y="320" type="line"/>
      <point x="153" y="160" type="line"/>
      <point x="185" y="160" type="line"/>
      <point x="185" y="128" type="line"/>
      <point x="217" y="128" type="line"/>
      <point x="217" y="96" type="line"/>
    </contour>
    <contour>
      <point x="57" y="0" type="line"/>
      <point x="57" y="640" type="line"/>
      <point x="153" y="640" type="line"/>
      <point x="153" y="416" type="line"/>
      <point x="185" y="416" type="line"/>
      <point x="185" y="448" type="line"/>
      <point x="217" y="448" type="line"/>
      <point x="217" y="480" type="line"/>
      <point x="345" y="480" type="line"/>
      <point x="345" y="448" type="line"/>
      <point x="409" y="448" type="line"/>
      <point x="409" y="416" type="line"/>
      <point x="441" y="416" type="line"/>
      <point x="441" y="352" type="line"/>
      <point x="473" y="352" type="line"/>
      <point x="473" y="128" type="line"/>
      <point x="441" y="128" type="line"/>
      <point x="441" y="64" type="line"/>
      <point x="409" y="64" type="line"/>
      <point x="409" y="32" type="line"/>
      <point x="345" y="32" type="line"/>
      <point x="345" y="0" type="line"/>
      <point x="217" y="0" type="line"/>
      <point x="217" y="32" type="line"/>
      <point x="185" y="32" type="line"/>
      <point x="185" y="64" type="line"/>
      <point x="153" y="64" type="line"/>
      <point x="153" y="0" type="line"/>
    </contour>
    <contour>
      <point x="121" y="32" type="line"/>
      <point x="121" y="96" type="line"/>
      <point x="153" y="96" type="line"/>
      <point x="153" y="128" type="line"/>
      <point x="121" y="128" type="line"/>
      <point x="121" y="352" type="line"/>
      <point x="153" y="352" type="line"/>
      <point x="153" y="384" type="line"/>
      <point x="121" y="384" type="line"/>
      <point x="121" y="608" type="line"/>
      <point x="89" y="608" type="line"/>
      <point x="89" y="32" type="line"/>
    </contour>
    <contour>
      <point x="441" y="160" type="line"/>
      <point x="441" y="320" type="line"/>
      <point x="409" y="320" type="line"/>
      <point x="409" y="160" type="line"/>
    </contour>
    <contour>
      <point x="313" y="416" type="line"/>
      <point x="313" y="448" type="line"/>
      <point x="249" y="448" type="line"/>
      <point x="249" y="416" type="line"/>
    </contour>
    <contour>
      <point x="249" y="32" type="line"/>
      <point x="313" y="32" type="line"/>
      <point x="313" y="64" type="line"/>
      <point x="249" y="64" type="line"/>
    </contour>
    <contour>
      <point x="185" y="64" type="line"/>
      <point x="217" y="64" type="line"/>
      <point x="217" y="96" type="line"/>
      <point x="185" y="96" type="line"/>
    </contour>
    <contour>
      <point x="185" y="416" type="line"/>
      <point x="185" y="384" type="line"/>
      <point x="217" y="384" type="line"/>
      <point x="217" y="416" type="line"/>
    </contour>
  </outline>
</glyph>
<glyph name="d" format="1">
  <advance width="513"/>
  <unicode hex="0064"/>
  <outline>
    <contour>
      <point x="294" y="96" type="line"/>
      <point x="294" y="128" type="line"/>
      <point x="326" y="128" type="line"/>
      <point x="326" y="160" type="line"/>
      <point x="358" y="160" type="line"/>
      <point x="358" y="320" type="line"/>
      <point x="326" y="320" type="line"/>
      <point x="326" y="352" type="line"/>
      <point x="294" y="352" type="line"/>
      <point x="294" y="384" type="line"/>
      <point x="166" y="384" type="line"/>
      <point x="166" y="352" type="line"/>
      <point x="134" y="352" type="line"/>
      <point x="134" y="128" type="line"/>
      <point x="166" y="128" type="line"/>
      <point x="166" y="96" type="line"/>
    </contour>
    <contour>
      <point x="166" y="0" type="line"/>
      <point x="166" y="32" type="line"/>
      <point x="102" y="32" type="line"/>
      <point x="102" y="64" type="line"/>
      <point x="70" y="64" type="line"/>
      <point x="70" y="128" type="line"/>
      <point x="38" y="128" type="line"/>
      <point x="38" y="352" type="line"/>
      <point x="70" y="352" type="line"/>
      <point x="70" y="416" type="line"/>
      <point x="102" y="416" type="line"/>
      <point x="102" y="448" type="line"/>
      <point x="166" y="448" type="line"/>
      <point x="166" y="480" type="line"/>
      <point x="294" y="480" type="line"/>
      <point x="294" y="448" type="line"/>
      <point x="326" y="448" type="line"/>
      <point x="326" y="416" type="line"/>
      <point x="358" y="416" type="line"/>
      <point x="358" y="640" type="line"/>
      <point x="454" y="640" type="line"/>
      <point x="454" y="0" type="line"/>
      <point x="358" y="0" type="line"/>
      <point x="358" y="64" type="line"/>
      <point x="326" y="64" type="line"/>
      <point x="326" y="32" type="line"/>
      <point x="294" y="32" type="line"/>
      <point x="294" y="0" type="line"/>
    </contour>
    <contour>
      <point x="390" y="96" type="line"/>
      <point x="390" y="32" type="line"/>
      <point x="422" y="32" type="line"/>
      <point x="422" y="608" type="line"/>
      <point x="390" y="608" type="line"/>
      <point x="390" y="384" type="line"/>
      <point x="358" y="384" type="line"/>
      <point x="358" y="352" type="line"/>
      <point x="390" y="352" type="line"/>
      <point x="390" y="128" type="line"/>
      <point x="358" y="128" type="line"/>
      <point x="358" y="96" type="line"/>
    </contour>
    <contour>
      <point x="70" y="320" type="line"/>
      <point x="70" y="160" type="line"/>
      <point x="102" y="160" type="line"/>
      <point x="102" y="320" type="line"/>
    </contour>
    <contour>
      <point x="262" y="416" type="line"/>
      <point x="262" y="448" type="line"/>
      <point x="198" y="448" type="line"/>
      <point x="198" y="416" type="line"/>
    </contour>
    <contour>
      <point x="262" y="32" type="line"/>
      <point x="262" y="64" type="line"/>
      <point x="198" y="64" type="line"/>
      <point x="198" y="32" type="line"/>
    </contour>
  </outline>
</glyph>
<glyph name="e" format="1">
  <advance width="468"/>
  <unicode hex="0065"/>
  <outline>
    <contour>
      <point x="330" y="288" type="line"/>
      <point x="330" y="352" type="line"/>
      <point x="298" y="352" type="line"/>
      <point x="298" y="384" type="line"/>
      <point x="170" y="384" type="line"/>
      <point x="170" y="352" type="line"/>
      <point x="138" y="352" type="line"/>
      <point x="138" y="288" type="line"/>
    </contour>
    <contour>
      <point x="170" y="0" type="line"/>
      <point x="170" y="32" type="line"/>
      <point x="106" y="32" type="line"/>
      <point x="106" y="64" type="line"/>
      <point x="74" y="64" type="line"/>
      <point x="74" y="128" type="line"/>
      <point x="42" y="128" type="line"/>
      <point x="42" y="352" type="line"/>
      <point x="74" y="352" type="line"/>
      <point x="74" y="416" type="line"/>
      <point x="106" y="416" type="line"/>
      <point x="106" y="448" type="line"/>
      <point x="170" y="448" type="line"/>
      <point x="170" y="480" type="line"/>
      <point x="298" y="480" type="line"/>
      <point x="298" y="448" type="line"/>
      <point x="362" y="448" type="line"/>
      <point x="362" y="416" type="line"/>
      <point x="394" y="416" type="line"/>
      <point x="394" y="352" type="line"/>
      <point x="426" y="352" type="line"/>
      <point x="426" y="224" type="line"/>
      <point x="138" y="224" type="line"/>
      <point x="138" y="128" type="line"/>
      <point x="170" y="128" type="line"/>
      <point x="170" y="96" type="line"/>
      <point x="298" y="96" type="line"/>
      <point x="298" y="128" type="line"/>
      <point x="330" y="128" type="line"/>
      <point x="330" y="160" type="line"/>
      <point x="426" y="160" type="line"/>
      <point x="426" y="96" type="line"/>
      <point x="394" y="96" type="line"/>
      <point x="394" y="64" type="line"/>
      <point x="362" y="64" type="line"/>
      <point x="362" y="32" type="line"/>
      <point x="298" y="32" type="line"/>
      <point x="298" y="0" type="line"/>
    </contour>
    <contour>
      <point x="106" y="160" type="line"/>
      <point x="106" y="320" type="line"/>
      <point x="74" y="320" type="line"/>
      <point x="74" y="160" type="line"/>
    </contour>
    <contour>
      <point x="266" y="448" type="line"/>
      <point x="202" y="448" type="line"/>
      <point x="202" y="416" type="line"/>
      <point x="266" y="416" type="line"/>
    </contour>
    <contour>
      <point x="394" y="256" type="line"/>
      <point x="394" y="320" type="line"/>
      <point x="362" y="320" type="line"/>
      <point x="362" y="256" type="line"/>
    </contour>
    <contour>
      <point x="266" y="32" type="line"/>
      <point x="266" y="64" type="line"/>
      <point x="202" y="64" type="line"/>
      <point x="202" y="32" type="line"/>
    </contour>
  </outline>
</glyph>
<glyph name="f" format="1">
  <advance width="387"/>
  <unicode hex="0066"/>
  <outline>
    <contour>
      <point x="104" y="0" type="line"/>
      <point x="104" y="384" type="line"/>
      <point x="40" y="384" type="line"/>
      <point x="40" y="480" type="line"/>
      <point x="104" y="480" type="line"/>
      <point x="104" y="576" type="line"/>
      <point x="136" y="576" type="line"/>
      <point x="136" y="608" type="line"/>
      <point x="168" y="608" type="line"/>
      <point x="168" y="640" type="line"/>
      <point x="328" y="640" type="line"/>
      <point x="328" y="576" type="line"/>
      <point x="232" y="576" type="line"/>
      <point x="232" y="544" type="line"/>
      <point x="200" y="544" type="line"/>
      <point x="200" y="480" type="line"/>
      <point x="296" y="480" type="line"/>
      <point x="296" y="384" type="line"/>
      <point x="200" y="384" type="line"/>
      <point x="200" y="0" type="line"/>
    </contour>
    <contour>
      <point x="168" y="32" type="line"/>
      <point x="168" y="416" type="line"/>
      <point x="264" y="416" type="line"/>
      <point x="264" y="448" type="line"/>
      <point x="168" y="448" type="line"/>
      <point x="168" y="544" type="line"/>
      <point x="136" y="544" type="line"/>
      <point x="136" y="448" type="line"/>
      <point x="72" y="448" type="line"/>
      <point x="72" y="416" type="line"/>
      <point x="136" y="416" type="line"/>
      <point x="136" y="32" type="line"/>
    </contour>
  </outline>
</glyph>
<glyph name="g" format="1">
  <advance width="518"/>
  <unicode hex="0067"/>
  <outline>
    <contour>
      <point x="301" y="96" type="line"/>
      <point x="301" y="128" type="line"/>
      <point x="333" y="128" type="line"/>
      <point x="333" y="160" type="line"/>
      <point x="365" y="160" type="line"/>
      <point x="365" y="320" type="line"/>
      <point x="333" y="320" type="line"/>
      <point x="333" y="352" type="line"/>
      <point x="301" y="352" type="line"/>
      <point x="301" y="384" type="line"/>
      <point x="173" y="384" type="line"/>
      <point x="173" y="352" type="line"/>
      <point x="141" y="352" type="line"/>
      <point x="141" y="128" type="line"/>
      <point x="173" y="128" type="line"/>
      <point x="173" y="96" type="line"/>
    </contour>
    <contour>
      <point x="173" y="-192" type="line"/>
      <point x="173" y="-160" type="line"/>
      <point x="109" y="-160" type="line"/>
      <point x="109" y="-128" type="line"/>
      <point x="77" y="-128" type="line"/>
      <point x="77" y="-96" type="line"/>
      <point x="45" y="-96" type="line"/>
      <point x="45" y="-64" type="line"/>
      <point x="77" y="-64" type="line"/>
      <point x="77" y="-32" type="line"/>
      <point x="141" y="-32" type="line"/>
      <point x="141" y="-64" type="line"/>
      <point x="173" y="-64" type="line"/>
      <point x="173" y="-96" type="line"/>
      <point x="333" y="-96" type="line"/>
      <point x="333" y="-64" type="line"/>
      <point x="365" y="-64" type="line"/>
      <point x="365" y="64" type="line"/>
      <point x="333" y="64" type="line"/>
      <point x="333" y="32" type="line"/>
      <point x="301" y="32" type="line"/>
      <point x="301" y="0" type="line"/>
      <point x="173" y="0" type="line"/>
      <point x="173" y="32" type="line"/>
      <point x="109" y="32" type="line"/>
      <point x="109" y="64" type="line"/>
      <point x="77" y="64" type="line"/>
      <point x="77" y="128" type="line"/>
      <point x="45" y="128" type="line"/>
      <point x="45" y="352" type="line"/>
      <point x="77" y="352" type="line"/>
      <point x="77" y="416" type="line"/>
      <point x="109" y="416" type="line"/>
      <point x="109" y="448" type="line"/>
      <point x="173" y="448" type="line"/>
      <point x="173" y="480" type="line"/>
      <point x="301" y="480" type="line"/>
      <point x="301" y="448" type="line"/>
      <point x="333" y="448" type="line"/>
      <point x="333" y="416" type="line"/>
      <point x="365" y="416" type="line"/>
      <point x="365" y="480" type="line"/>
      <point x="461" y="480" type="line"/>
      <point x="461" y="-96" type="line"/>
      <point x="429" y="-96" type="line"/>
      <point x="429" y="-128" type="line"/>
      <point x="397" y="-128" type="line"/>
      <point x="397" y="-160" type="line"/>
      <point x="333" y="-160" type="line"/>
      <point x="333" y="-192" type="line"/>
    </contour>
    <contour>
      <point x="429" y="-64" type="line"/>
      <point x="429" y="448" type="line"/>
      <point x="397" y="448" type="line"/>
      <point x="397" y="384" type="line"/>
      <point x="365" y="384" type="line"/>
      <point x="365" y="352" type="line"/>
      <point x="397" y="352" type="line"/>
      <point x="397" y="128" type="line"/>
      <point x="365" y="128" type="line"/>
      <point x="365" y="96" type="line"/>
      <point x="397" y="96" type="line"/>
      <point x="397" y="-64" type="line"/>
    </contour>
    <contour>
      <point x="77" y="320" type="line"/>
      <point x="77" y="160" type="line"/>
      <point x="109" y="160" type="line"/>
      <point x="109" y="320" type="line"/>
    </contour>
    <contour>
      <point x="301" y="-160" type="line"/>
      <point x="301" y="-128" type="line"/>
      <point x="205" y="-128" type="line"/>
      <point x="205" y="-160" type="line"/>
    </contour>
    <contour>
      <point x="269" y="448" type="line"/>
      <point x="205" y="448" type="line"/>
      <point x="205" y="416" type="line"/>
      <point x="269" y="416" type="line"/>
    </contour>
    <contour>
      <point x="205" y="32" type="line"/>
      <point x="269" y="32" type="line"/>
      <point x="269" y="64" type="line"/>
      <point x="205" y="64" type="line"/>
    </contour>
    <contour>
      <point x="333" y="64" type="line"/>
      <point x="333" y="96" type="line"/>
      <point x="301" y="96" type="line"/>
      <point x="301" y="64" type="line"/>
    </contour>
  </outline>
</glyph>
<glyph name="h" format="1">
  <advance width="521"/>
  <unicode hex="0068"/>
  <outline>
    <contour>
      <point x="57" y="0" type="line"/>
      <point x="57" y="640" type="line"/>
      <point x="153" y="640" type="line"/>
      <point x="153" y="416" type="line"/>
      <point x="185" y="416" type="line"/>
      <point x="185" y="448" type="line"/>
      <point x="217" y="448" type="line"/>
      <point x="217" y="480" type="line"/>
      <point x="345" y="480" type="line"/>
      <point x="345" y="448" type="line"/>
      <point x="409" y="448" type="line"/>
      <point x="409" y="416" type="line"/>
      <point x="441" y="416" type="line"/>
      <point x="441" y="352" type="line"/>
      <point x="473" y="352" type="line"/>
      <point x="473" y="0" type="line"/>
      <point x="377" y="0" type="line"/>
      <point x="377" y="352" type="line"/>
      <point x="345" y="352" type="line"/>
      <point x="345" y="384" type="line"/>
      <point x="217" y="384" type="line"/>
      <point x="217" y="352" type="line"/>
      <point x="185" y="352" type="line"/>
      <point x="185" y="320" type="line"/>
      <point x="153" y="320" type="line"/>
      <point x="153" y="0" type="line"/>
    </contour>
    <contour>
      <point x="121" y="32" type="line"/>
      <point x="121" y="352" type="line"/>
      <point x="153" y="352" type="line"/>
      <point x="153" y="384" type="line"/>
      <point x="121" y="384" type="line"/>
      <point x="121" y="608" type="line"/>
      <point x="89" y="608" type="line"/>
      <point x="89" y="32" type="line"/>
    </contour>
    <contour>
      <point x="441" y="32" type="line"/>
      <point x="441" y="320" type="line"/>
      <point x="409" y="320" type="line"/>
      <point x="409" y="32" type="line"/>
    </contour>
    <contour>
      <point x="313" y="448" type="line"/>
      <point x="249" y="448" type="line"/>
      <point x="249" y="416" type="line"/>
      <point x="313" y="416" type="line"/>
    </contour>
    <contour>
      <point x="217" y="384" type="line"/>
      <point x="217" y="416" type="line"/>
      <point x="185" y="416" type="line"/>
      <point x="185" y="384" type="line"/>
    </contour>
  </outline>
</glyph>
<glyph name="j" format="1">
  <advance width="212"/>
  <unicode hex="006A"/>
  <outline>
    <contour>
      <point x="57" y="544" type="line"/>
      <point x="57" y="640" type="line"/>
      <point x="153" y="640" type="line"/>
      <point x="153" y="544" type="line"/>
    </contour>
    <contour>
      <point x="57" y="-192" type="line"/>
      <point x="57" y="480" type="line"/>
      <point x="153" y="480" type="line"/>
      <point x="153" y="-192" type="line"/>
    </contour>
    <contour>
      <point x="121" y="-160" type="line"/>
      <point x="121" y="448" type="line"/>
      <point x="89" y="448" type="line"/>
      <point x="89" y="-160" type="line"/>
    </contour>
    <contour>
      <point x="121" y="576" type="line"/>
      <point x="121" y="608" type="line"/>
      <point x="89" y="608" type="line"/>
      <point x="89" y="576" type="line"/>
    </contour>
  </outline>
</glyph>
<glyph name="k" format="1">
  <advance width="521"/>
  <unicode hex="006B"/>
  <outline>
    <contour>
      <point x="57" y="0" type="line"/>
      <point x="57" y="640" type="line"/>
      <point x="153" y="640" type="line"/>
      <point x="153" y="288" type="line"/>
      <point x="185" y="288" type="line"/>
      <point x="185" y="320" type="line"/>
      <point x="217" y="320" type="line"/>
      <point x="217" y="352" type="line"/>
      <point x="249" y="352" type="line"/>
      <point x="249" y="384" type="line"/>
      <point x="281" y="384" type="line"/>
      <point x="281" y="416" type="line"/>
      <point x="313" y="416" type="line"/>
      <point x="313" y="448" type="line"/>
      <point x="345" y="448" type="line"/>
      <point x="345" y="480" type="line"/>
      <point x="473" y="480" type="line"/>
      <point x="473" y="448" type="line"/>
      <point x="441" y="448" type="line"/>
      <point x="441" y="416" type="line"/>
      <point x="409" y="416" type="line"/>
      <point x="409" y="384" type="line"/>
      <point x="377" y="384" type="line"/>
      <point x="377" y="352" type="line"/>
      <point x="345" y="352" type="line"/>
      <point x="345" y="320" type="line"/>
      <point x="313" y="320" type="line"/>
      <point x="313" y="288" type="line"/>
      <point x="281" y="288" type="line"/>
      <point x="281" y="256" type="line"/>
      <point x="249" y="256" type="line"/>
      <point x="249" y="224" type="line"/>
      <point x="281" y="224" type="line"/>
      <point x="281" y="192" type="line"/>
      <point x="313" y="192" type="line"/>
      <point x="313" y="160" type="line"/>
      <point x="345" y="160" type="line"/>
      <point x="345" y="128" type="line"/>
      <point x="377" y="128" type="line"/>
      <point x="377" y="96" type="line"/>
      <point x="409" y="96" type="line"/>
      <point x="409" y="64" type="line"/>
      <point x="441" y="64" type="line"/>
      <point x="441" y="32" type="line"/>
      <point x="473" y="32" type="line"/>
      <point x="473" y="0" type="line"/>
      <point x="345" y="0" type="line"/>
      <point x="345" y="32" type="line"/>
      <point x="313" y="32" type="line"/>
      <point x="313" y="64" type="line"/>
      <point x="281" y="64" type="line"/>
      <point x="281" y="96" type="line"/>
      <point x="249" y="96" type="line"/>
      <point x="249" y="128" type="line"/>
      <point x="217" y="128" type="line"/>
      <point x="217" y="160" type="line"/>
      <point x="185" y="160" type="line"/>
      <point x="185" y="192" type="line"/>
      <point x="153" y="192" type="line"/>
      <point x="153" y="0" type="line"/>
    </contour>
    <contour>
      <point x="121" y="32" type="line"/>
      <point x="121" y="224" type="line"/>
      <point x="217" y="224" type="line"/>
      <point x="217" y="256" type="line"/>
      <point x="121" y="256" type="line"/>
      <point x="121" y="608" type="line"/>
      <point x="89" y="608" type="line"/>
      <point x="89" y="32" type="line"/>
    </contour>
  </outline>
</glyph>
<glyph name="m" format="1">
  <advance width="709"/>
  <unicode hex="006D"/>
  <outline>
    <contour>
      <point x="53" y="0" type="line"/>
      <point x="53" y="480" type="line"/>
      <point x="149" y="480" type="line"/>
      <point x="149" y="416" type="line"/>
      <point x="181" y="416" type="line"/>
      <point x="181" y="448" type="line"/>
      <point x="213" y="448" type="line"/>
      <point x="213" y="480" type="line"/>
      <point x="309" y="480" type="line"/>
      <point x="309" y="448" type="line"/>
      <point x="341" y="448" type="line"/>
      <point x="341" y="416" type="line"/>
      <point x="405" y="416" type="line"/>
      <point x="405" y="448" type="line"/>
      <point x="437" y="448" type="line"/>
      <point x="437" y="480" type="line"/>
      <point x="565" y="480" type="line"/>
      <point x="565" y="448" type="line"/>
      <point x="597" y="448" type="line"/>
      <point x="597" y="416" type="line"/>
      <point x="629" y="416" type="line"/>
      <point x="629" y="352" type="line"/>
      <point x="661" y="352" type="line"/>
      <point x="661" y="0" type="line"/>
      <point x="565" y="0" type="line"/>
      <point x="565" y="352" type="line"/>
      <point x="533" y="352" type="line"/>
      <point x="533" y="384" type="line"/>
      <point x="437" y="384" type="line"/>
      <point x="437" y="352" type="line"/>
      <point x="405" y="352" type="line"/>
      <point x="405" y="0" type="line"/>
      <point x="309" y="0" type="line"/>
      <point x="309" y="352" type="line"/>
      <point x="277" y="352" type="line"/>
      <point x="277" y="384" type="line"/>
      <point x="213" y="384" type="line"/>
      <point x="213" y="352" type="line"/>
      <point x="181" y="352" type="line"/>
      <point x="181" y="320" type="line"/>
      <point x="149" y="320" type="line"/>
      <point x="149" y="0" type="line"/>
    </contour>
    <contour>
      <point x="117" y="32" type="line"/>
      <point x="117" y="352" type="line"/>
      <point x="149" y="352" type="line"/>
      <point x="149" y="384" type="line"/>
      <point x="117" y="384" type="line"/>
      <point x="117" y="448" type="line"/>
      <point x="85" y="448" type="line"/>
      <point x="85" y="32" type="line"/>
    </contour>
    <contour>
      <point x="341" y="32" type="line"/>
      <point x="373" y="32" type="line"/>
      <point x="373" y="384" type="line"/>
      <point x="341" y="384" type="line"/>
    </contour>
    <contour>
      <point x="629" y="32" type="line"/>
      <point x="629" y="320" type="line"/>
      <point x="597" y="320" type="line"/>
      <point x="597" y="32" type="line"/>
    </contour>
    <contour>
      <point x="533" y="448" type="line"/>
      <point x="469" y="448" type="line"/>
      <point x="469" y="416" type="line"/>
      <point x="533" y="416" type="line"/>
    </contour>
    <contour>
      <point x="277" y="448" type="line"/>
      <point x="245" y="448" type="line"/>
      <point x="245" y="416" type="line"/>
      <point x="277" y="416" type="line"/>
    </contour>
  </outline>
</glyph>
<glyph name="p" format="1">
  <advance width="510"/>
  <unicode hex="0070"/>
  <outline>
    <contour>
      <point x="341" y="96" type="line"/>
      <point x="341" y="128" type="line"/>
      <point x="373" y="128" type="line"/>
      <point x="373" y="352" type="line"/>
      <point x="341" y="352" type="line"/>
      <point x="341" y="384" type="line"/>
      <point x="213" y="384" type="line"/>
      <point x="213" y="352" type="line"/>
      <point x="181" y="352" type="line"/>
      <point x="181" y="320" type="line"/>
      <point x="149" y="320" type="line"/>
      <point x="149" y="160" type="line"/>
      <point x="181" y="160" type="line"/>
      <point x="181" y="128" type="line"/>
      <point x="213" y="128" type="line"/>
      <point x="213" y="96" type="line"/>
    </contour>
    <contour>
      <point x="53" y="-192" type="line"/>
      <point x="53" y="480" type="line"/>
      <point x="149" y="480" type="line"/>
      <point x="149" y="416" type="line"/>
      <point x="181" y="416" type="line"/>
      <point x="181" y="448" type="line"/>
      <point x="213" y="448" type="line"/>
      <point x="213" y="480" type="line"/>
      <point x="341" y="480" type="line"/>
      <point x="341" y="448" type="line"/>
      <point x="405" y="448" type="line"/>
      <point x="405" y="416" type="line"/>
      <point x="437" y="416" type="line"/>
      <point x="437" y="352" type="line"/>
      <point x="469" y="352" type="line"/>
      <point x="469" y="128" type="line"/>
      <point x="437" y="128" type="line"/>
      <point x="437" y="64" type="line"/>
      <point x="405" y="64" type="line"/>
      <point x="405" y="32" type="line"/>
      <point x="341" y="32" type="line"/>
      <point x="341" y="0" type="line"/>
      <point x="213" y="0" type="line"/>
      <point x="213" y="32" type="line"/>
      <point x="181" y="32" type="line"/>
      <point x="181" y="64" type="line"/>
      <point x="149" y="64" type="line"/>
      <point x="149" y="-192" type="line"/>
    </contour>
    <contour>
      <point x="117" y="-160" type="line"/>
      <point x="117" y="96" type="line"/>
      <point x="149" y="96" type="line"/>
      <point x="149" y="128" type="line"/>
      <point x="117" y="128" type="line"/>
      <point x="117" y="352" type="line"/>
      <point x="149" y="352" type="line"/>
      <point x="149" y="384" type="line"/>
      <point x="117" y="384" type="line"/>
      <point x="117" y="448" type="line"/>
      <point x="85" y="448" type="line"/>
      <point x="85" y="-160" type="line"/>
    </contour>
    <contour>
      <point x="437" y="160" type="line"/>
      <point x="437" y="320" type="line"/>
      <point x="405" y="320" type="line"/>
      <point x="405" y="160" type="line"/>
    </contour>
    <contour>
      <point x="309" y="416" type="line"/>
      <point x="309" y="448" type="line"/>
      <point x="245" y="448" type="line"/>
      <point x="245" y="416" type="line"/>
    </contour>
    <contour>
      <point x="245" y="32" type="line"/>
      <point x="309" y="32" type="line"/>
      <point x="309" y="64" type="line"/>
      <point x="245" y="64" type="line"/>
    </contour>
  </outline>
</glyph>
<glyph name="r" format="1">
  <advance width="434"/>
  <unicode hex="0072"/>
  <outline>
    <contour>
      <point x="53" y="0" type="line"/>
      <point x="53" y="480" type="line"/>
      <point x="149" y="480" type="line"/>
      <point x="149" y="416" type="line"/>
      <point x="181" y="416" type="line"/>
      <point x="181" y="448" type="line"/>
      <point x="213" y="448" type="line"/>
      <point x="213" y="480" type="line"/>
      <point x="341" y="480" type="line"/>
      <point x="341" y="448" type="line"/>
      <point x="373" y="448" type="line"/>
      <point x="373" y="416" type="line"/>
      <point x="405" y="416" type="line"/>
      <point x="405" y="352" type="line"/>
      <point x="373" y="352" type="line"/>
      <point x="373" y="320" type="line"/>
      <point x="341" y="320" type="line"/>
      <point x="341" y="352" type="line"/>
      <point x="309" y="352" type="line"/>
      <point x="309" y="384" type="line"/>
      <point x="213" y="384" type="line"/>
      <point x="213" y="352" type="line"/>
      <point x="181" y="352" type="line"/>
      <point x="181" y="320" type="line"/>
      <point x="149" y="320" type="line"/>
      <point x="149" y="0" type="line"/>
    </contour>
    <contour>
      <point x="117" y="32" type="line"/>
      <point x="117" y="352" type="line"/>
      <point x="149" y="352" type="line"/>
      <point x="149" y="384" type="line"/>
      <point x="117" y="384" type="line"/>
      <point x="117" y="448" type="line"/>
      <point x="85" y="448" type="line"/>
      <point x="85" y="32" type="line"/>
    </contour>
    <contour>
      <point x="309" y="448" type="line"/>
      <point x="245" y="448" type="line"/>
      <point x="245" y="416" type="line"/>
      <point x="309" y="416" type="line"/>
    </contour>
  </outline>
</glyph>
<glyph name="t" format="1">
  <advance width="361"/>
  <unicode hex="0074"/>
  <outline>
    <contour>
      <point x="104" y="0" type="line"/>
      <point x="104" y="384" type="line"/>
      <point x="40" y="384" type="line"/>
      <point x="40" y="480" type="line"/>
      <point x="104" y="480" type="line"/>
      <point x="104" y="608" type="line"/>
      <point x="200" y="608" type="line"/>
      <point x="200" y="480" type="line"/>
      <point x="328" y="480" type="line"/>
      <point x="328" y="384" type="line"/>
      <point x="200" y="384" type="line"/>
      <point x="200" y="0" type="line"/>
    </contour>
    <contour>
      <point x="168" y="32" type="line"/>
      <point x="168" y="416" type="line"/>
      <point x="296" y="416" type="line"/>
      <point x="296" y="448" type="line"/>
      <point x="168" y="448" type="line"/>
      <point x="168" y="576" type="line"/>
      <point x="136" y="576" type="line"/>
      <point x="136" y="448" type="line"/>
      <point x="72" y="448" type="line"/>
      <point x="72" y="416" type="line"/>
      <point x="136" y="416" type="line"/>
      <point x="136" y="32" type="line"/>
    </contour>
  </outline>
</glyph>
<glyph name="u" format="1">
  <advance width="487"/>
  <unicode hex="0075"/>
  <outline>
    <contour>
      <point x="116" y="0" type="line"/>
      <point x="116" y="32" type="line"/>
      <point x="84" y="32" type="line"/>
      <point x="84" y="64" type="line"/>
      <point x="52" y="64" type="line"/>
      <point x="52" y="480" type="line"/>
      <point x="148" y="480" type="line"/>
      <point x="148" y="128" type="line"/>
      <point x="180" y="128" type="line"/>
      <point x="180" y="96" type="line"/>
      <point x="276" y="96" type="line"/>
      <point x="276" y="128" type="line"/>
      <point x="308" y="128" type="line"/>
      <point x="308" y="160" type="line"/>
      <point x="340" y="160" type="line"/>
      <point x="340" y="480" type="line"/>
      <point x="436" y="480" type="line"/>
      <point x="436" y="0" type="line"/>
      <point x="340" y="0" type="line"/>
      <point x="340" y="64" type="line"/>
      <point x="308" y="64" type="line"/>
      <point x="308" y="32" type="line"/>
      <point x="276" y="32" type="line"/>
      <point x="276" y="0" type="line"/>
    </contour>
    <contour>
      <point x="244" y="32" type="line"/>
      <point x="244" y="64" type="line"/>
      <point x="148" y="64" type="line"/>
      <point x="148" y="96" type="line"/>
      <point x="116" y="96" type="line"/>
      <point x="116" y="448" type="line"/>
      <point x="84" y="448" type="line"/>
      <point x="84" y="96" type="line"/>
      <point x="116" y="96" type="line"/>
      <point x="116" y="64" type="line"/>
      <point x="148" y="64" type="line"/>
      <point x="148" y="32" type="line"/>
    </contour>
    <contour>
      <point x="372" y="96" type="line"/>
      <point x="372" y="32" type="line"/>
      <point x="404" y="32" type="line"/>
      <point x="404" y="448" type="line"/>
      <point x="372" y="448" type="line"/>
      <point x="372" y="128" type="line"/>
      <point x="340" y="128" type="line"/>
      <point x="340" y="96" type="line"/>
    </contour>
  </outline>
</glyph>
<glyph name="v" format="1">
  <advance width="492"/>
  <unicode hex="0076"/>
  <outline>
    <contour>
      <point x="166" y="0" type="line"/>
      <point x="166" y="64" type="line"/>
      <point x="134" y="64" type="line"/>
      <point x="134" y="160" type="line"/>
      <point x="102" y="160" type="line"/>
      <point x="102" y="288" type="line"/>
      <point x="70" y="288" type="line"/>
      <point x="70" y="384" type="line"/>
      <point x="38" y="384" type="line"/>
      <point x="38" y="480" type="line"/>
      <point x="134" y="480" type="line"/>
      <point x="134" y="416" type="line"/>
      <point x="166" y="416" type="line"/>
      <point x="166" y="288" type="line"/>
      <point x="198" y="288" type="line"/>
      <point x="198" y="192" type="line"/>
      <point x="230" y="192" type="line"/>
      <point x="230" y="96" type="line"/>
      <point x="262" y="96" type="line"/>
      <point x="262" y="192" type="line"/>
      <point x="294" y="192" type="line"/>
      <point x="294" y="288" type="line"/>
      <point x="326" y="288" type="line"/>
      <point x="326" y="416" type="line"/>
      <point x="358" y="416" type="line"/>
      <point x="358" y="480" type="line"/>
      <point x="454" y="480" type="line"/>
      <point x="454" y="384" type="line"/>
      <point x="422" y="384" type="line"/>
      <point x="422" y="288" type="line"/>
      <point x="390" y="288" type="line"/>
      <point x="390" y="160" type="line"/>
      <point x="358" y="160" type="line"/>
      <point x="358" y="64" type="line"/>
      <point x="326" y="64" type="line"/>
      <point x="326" y="0" type="line"/>
    </contour>
    <contour>
      <point x="294" y="32" type="line"/>
      <point x="294" y="64" type="line"/>
      <point x="198" y="64" type="line"/>
      <point x="198" y="32" type="line"/>
    </contour>
    <contour>
      <point x="326" y="96" type="line"/>
      <point x="326" y="160" type="line"/>
      <point x="294" y="160" type="line"/>
      <point x="294" y="96" type="line"/>
    </contour>
    <contour>
      <point x="134" y="384" type="line"/>
      <point x="102" y="384" type="line"/>
      <point x="102" y="320" type="line"/>
      <point x="134" y="320" type="line"/>
    </contour>
    <contour>
      <point x="166" y="256" type="line"/>
      <point x="134" y="256" type="line"/>
      <point x="134" y="192" type="line"/>
      <point x="166" y="192" type="line"/>
    </contour>
    <contour>
      <point x="198" y="160" type="line"/>
      <point x="166" y="160" type="line"/>
      <point x="166" y="96" type="line"/>
      <point x="198" y="96" type="line"/>
    </contour>
    <contour>
      <point x="358" y="192" type="line"/>
      <point x="358" y="256" type="line"/>
      <point x="326" y="256" type="line"/>
      <point x="326" y="192" type="line"/>
    </contour>
    <contour>
      <point x="390" y="320" type="line"/>
      <point x="390" y="384" type="line"/>
      <point x="358" y="384" type="line"/>
      <point x="358" y="320" type="line"/>
    </contour>
    <contour>
      <point x="102" y="448" type="line"/>
      <point x="70" y="448" type="line"/>
      <point x="70" y="416" type="line"/>
      <point x="102" y="416" type="line"/>
    </contour>
    <contour>
      <point x="422" y="416" type="line"/>
      <point x="422" y="448" type="line"/>
      <point x="390" y="448" type="line"/>
      <point x="390" y="416" type="line"/>
    </contour>
  </outline>
</glyph>
<glyph name="w" format="1">
  <advance width="684"/>
  <unicode hex="0077"/>
  <outline>
    <contour>
      <point x="390" y="288" type="line"/>
      <point x="390" y="192" type="line"/>
      <point x="422" y="192" type="line"/>
      <point x="422" y="96" type="line"/>
      <point x="454" y="96" type="line"/>
      <point x="454" y="192" type="line"/>
      <point x="486" y="192" type="line"/>
      <point x="486" y="288" type="line"/>
      <point x="518" y="288" type="line"/>
      <point x="518" y="384" type="line"/>
      <point x="550" y="384" type="line"/>
      <point x="550" y="480" type="line"/>
      <point x="646" y="480" type="line"/>
      <point x="646" y="384" type="line"/>
      <point x="614" y="384" type="line"/>
      <point x="614" y="288" type="line"/>
      <point x="582" y="288" type="line"/>
      <point x="582" y="160" type="line"/>
      <point x="550" y="160" type="line"/>
      <point x="550" y="64" type="line"/>
      <point x="518" y="64" type="line"/>
      <point x="518" y="0" type="line"/>
      <point x="390" y="0" type="line"/>
      <point x="390" y="64" type="line"/>
      <point x="358" y="64" type="line"/>
      <point x="358" y="160" type="line"/>
      <point x="326" y="160" type="line"/>
      <point x="326" y="64" type="line"/>
      <point x="294" y="64" type="line"/>
      <point x="294" y="0" type="line"/>
      <point x="166" y="0" type="line"/>
      <point x="166" y="64" type="line"/>
      <point x="134" y="64" type="line"/>
      <point x="134" y="160" type="line"/>
      <point x="102" y="160" type="line"/>
      <point x="102" y="288" type="line"/>
      <point x="70" y="288" type="line"/>
      <point x="70" y="384" type="line"/>
      <point x="38" y="384" type="line"/>
      <point x="38" y="480" type="line"/>
      <point x="134" y="480" type="line"/>
      <point x="134" y="384" type="line"/>
      <point x="166" y="384" type="line"/>
      <point x="166" y="288" type="line"/>
      <point x="198" y="288" type="line"/>
      <point x="198" y="192" type="line"/>
      <point x="230" y="192" type="line"/>
      <point x="230" y="96" type="line"/>
      <point x="262" y="96" type="line"/>
      <point x="262" y="192" type="line"/>
      <point x="294" y="192" type="line"/>
      <point x="294" y="288" type="line"/>
      <point x="326" y="288" type="line"/>
      <point x="326" y="352" type="line"/>
      <point x="358" y="352" type="line"/>
      <point x="358" y="288" type="line"/>
    </contour>
    <contour>
      <point x="326" y="256" type="line"/>
      <point x="326" y="192" type="line"/>
      <point x="358" y="192" type="line"/>
      <point x="358" y="256" type="line"/>
    </contour>
    <contour>
      <point x="262" y="32" type="line"/>
      <point x="262" y="64" type="line"/>
      <point x="198" y="64" type="line"/>
      <point x="198" y="32" type="line"/>
    </contour>
    <contour>
      <point x="198" y="160" type="line"/>
      <point x="166" y="160" type="line"/>
      <point x="166" y="96" type="line"/>
      <point x="198" y="96" type="line"/>
    </contour>
    <contour>
      <point x="518" y="96" type="line"/>
      <point x="518" y="160" type="line"/>
      <point x="486" y="160" type="line"/>
      <point x="486" y="96" type="line"/>
    </contour>
    <contour>
      <point x="166" y="256" type="line"/>
      <point x="134" y="256" type="line"/>
      <point x="134" y="192" type="line"/>
      <point x="166" y="192" type="line"/>
    </contour>
    <contour>
      <point x="486" y="32" type="line"/>
      <point x="486" y="64" type="line"/>
      <point x="422" y="64" type="line"/>
      <point x="422" y="32" type="line"/>
    </contour>
    <contour>
      <point x="550" y="192" type="line"/>
      <point x="550" y="256" type="line"/>
      <point x="518" y="256" type="line"/>
      <point x="518" y="192" type="line"/>
    </contour>
    <contour>
      <point x="102" y="448" type="line"/>
      <point x="70" y="448" type="line"/>
      <point x="70" y="416" type="line"/>
      <point x="102" y="416" type="line"/>
    </contour>
    <contour>
      <point x="582" y="320" type="line"/>
      <point x="582" y="352" type="line"/>
      <point x="550" y="352" type="line"/>
      <point x="550" y="320" type="line"/>
    </contour>
    <contour>
      <point x="614" y="416" type="line"/>
      <point x="614" y="448" type="line"/>
      <point x="582" y="448" type="line"/>
      <point x="582" y="416" type="line"/>
    </contour>
    <contour>
      <point x="134" y="352" type="line"/>
      <point x="102" y="352" type="line"/>
      <point x="102" y="320" type="line"/>
      <point x="134" y="320" type="line"/>
    </contour>
  </outline>
</glyph>
<glyph name="y" format="1">
  <advance width="460"/>
  <unicode hex="0079"/>
  <outline>
    <contour>
      <point x="134" y="-192" type="line"/>
      <point x="134" y="-96" type="line"/>
      <point x="166" y="-96" type="line"/>
      <point x="166" y="0" type="line"/>
      <point x="198" y="0" type="line"/>
      <point x="198" y="64" type="line"/>
      <point x="166" y="64" type="line"/>
      <point x="166" y="128" type="line"/>
      <point x="134" y="128" type="line"/>
      <point x="134" y="192" type="line"/>
      <point x="102" y="192" type="line"/>
      <point x="102" y="288" type="line"/>
      <point x="70" y="288" type="line"/>
      <point x="70" y="384" type="line"/>
      <point x="38" y="384" type="line"/>
      <point x="38" y="480" type="line"/>
      <point x="134" y="480" type="line"/>
      <point x="134" y="384" type="line"/>
      <point x="166" y="384" type="line"/>
      <point x="166" y="288" type="line"/>
      <point x="198" y="288" type="line"/>
      <point x="198" y="192" type="line"/>
      <point x="230" y="192" type="line"/>
      <point x="230" y="160" type="line"/>
      <point x="262" y="160" type="line"/>
      <point x="262" y="288" type="line"/>
      <point x="294" y="288" type="line"/>
      <point x="294" y="384" type="line"/>
      <point x="326" y="384" type="line"/>
      <point x="326" y="480" type="line"/>
      <point x="422" y="480" type="line"/>
      <point x="422" y="384" type="line"/>
      <point x="390" y="384" type="line"/>
      <point x="390" y="288" type="line"/>
      <point x="358" y="288" type="line"/>
      <point x="358" y="192" type="line"/>
      <point x="326" y="192" type="line"/>
      <point x="326" y="96" type="line"/>
      <point x="294" y="96" type="line"/>
      <point x="294" y="0" type="line"/>
      <point x="262" y="0" type="line"/>
      <point x="262" y="-96" type="line"/>
      <point x="230" y="-96" type="line"/>
      <point x="230" y="-192" type="line"/>
    </contour>
    <contour>
      <point x="262" y="32" type="line"/>
      <point x="262" y="128" type="line"/>
      <point x="198" y="128" type="line"/>
      <point x="198" y="96" type="line"/>
      <point x="230" y="96" type="line"/>
      <point x="230" y="32" type="line"/>
    </contour>
    <contour>
      <point x="198" y="-160" type="line"/>
      <point x="198" y="-128" type="line"/>
      <point x="166" y="-128" type="line"/>
      <point x="166" y="-160" type="line"/>
    </contour>
    <contour>
      <point x="102" y="448" type="line"/>
      <point x="70" y="448" type="line"/>
      <point x="70" y="416" type="line"/>
      <point x="102" y="416" type="line"/>
    </contour>
    <contour>
      <point x="134" y="352" type="line"/>
      <point x="102" y="352" type="line"/>
      <point x="102" y="320" type="line"/>
      <point x="134" y="320" type="line"/>
    </contour>
    <contour>
      <point x="166" y="256" type="line"/>
      <point x="134" y="256" type="line"/>
      <point x="134" y="224" type="line"/>
      <point x="166" y="224" type="line"/>
    </contour>
    <contour>
      <point x="390" y="416" type="line"/>
      <point x="390" y="448" type="line"/>
      <point x="358" y="448" type="line"/>
      <point x="358" y="416" type="line"/>
    </contour>
    <contour>
      <point x="358" y="320" type="line"/>
      <point x="358" y="352" type="line"/>
      <point x="326" y="352" type="line"/>
      <point x="326" y="320" type="line"/>
    </contour>
    <contour>
      <point x="326" y="224" type="line"/>
      <point x="326" y="256" type="line"/>
      <point x="294" y="256" type="line"/>
      <point x="294" y="224" type="line"/>
    </contour>
    <contour>
      <point x="230" y="-64" type="line"/>
      <point x="230" y="-32" type="line"/>
      <point x="198" y="-32" type="line"/>
      <point x="198" y="-64" type="line"/>
    </contour>
  </outline>
</glyph>
<glyph name="z" format="1">
  <advance width="516"/>
  <unicode hex="007A"/>
  <outline>
    <contour>
      <point x="50" y="0" type="line"/>
      <point x="50" y="96" type="line"/>
      <point x="82" y="96" type="line"/>
      <point x="82" y="128" type="line"/>
      <point x="114" y="128" type="line"/>
      <point x="114" y="160" type="line"/>
      <point x="146" y="160" type="line"/>
      <point x="146" y="192" type="line"/>
      <point x="178" y="192" type="line"/>
      <point x="178" y="224" type="line"/>
      <point x="210" y="224" type="line"/>
      <point x="210" y="256" type="line"/>
      <point x="242" y="256" type="line"/>
      <point x="242" y="288" type="line"/>
      <point x="274" y="288" type="line"/>
      <point x="274" y="320" type="line"/>
      <point x="306" y="320" type="line"/>
      <point x="306" y="352" type="line"/>
      <point x="338" y="352" type="line"/>
      <point x="338" y="384" type="line"/>
      <point x="50" y="384" type="line"/>
      <point x="50" y="480" type="line"/>
      <point x="466" y="480" type="line"/>
      <point x="466" y="384" type="line"/>
      <point x="434" y="384" type="line"/>
      <point x="434" y="352" type="line"/>
      <point x="402" y="352" type="line"/>
      <point x="402" y="320" type="line"/>
      <point x="370" y="320" type="line"/>
      <point x="370" y="288" type="line"/>
      <point x="338" y="288" type="line"/>
      <point x="338" y="256" type="line"/>
      <point x="306" y="256" type="line"/>
      <point x="306" y="224" type="line"/>
      <point x="274" y="224" type="line"/>
      <point x="274" y="192" type="line"/>
      <point x="242" y="192" type="line"/>
      <point x="242" y="160" type="line"/>
      <point x="210" y="160" type="line"/>
      <point x="210" y="128" type="line"/>
      <point x="178" y="128" type="line"/>
      <point x="178" y="96" type="line"/>
      <point x="466" y="96" type="line"/>
      <point x="466" y="0" type="line"/>
    </contour>
    <contour>
      <point x="434" y="32" type="line"/>
      <point x="434" y="64" type="line"/>
      <point x="146" y="64" type="line"/>
      <point x="146" y="96" type="line"/>
      <point x="114" y="96" type="line"/>
      <point x="114" y="64" type="line"/>
      <point x="82" y="64" type="line"/>
      <point x="82" y="32" type="line"/>
    </contour>
    <contour>
      <point x="402" y="384" type="line"/>
      <point x="402" y="416" type="line"/>
      <point x="434" y="416" type="line"/>
      <point x="434" y="448" type="line"/>
      <point x="82" y="448" type="line"/>
      <point x="82" y="416" type="line"/>
      <point x="370" y="416" type="line"/>
      <point x="370" y="384" type="line"/>
    </contour>
  </outline>
</glyph>
<glyph name="braceleft" format="1">
  <advance width="357"/>
  <unicode hex="007B"/>
  <outline>
    <contour>
      <point x="164" y="-96" type="line"/>
      <point x="164" y="-64" type="line"/>
      <point x="132" y="-64" type="line"/>
      <point x="132" y="-32" type="line"/>
      <point x="100" y="-32" type="line"/>
      <point x="100" y="288" type="line"/>
      <point x="68" y="288" type="line"/>
      <point x="68" y="320" type="line"/>
      <point x="36" y="320" type="line"/>
      <point x="36" y="352" type="line"/>
      <point x="68" y="352" type="line"/>
      <point x="68" y="384" type="line"/>
      <point x="100" y="384" type="line"/>
      <point x="100" y="672" type="line"/>
      <point x="132" y="672" type="line"/>
      <point x="132" y="704" type="line"/>
      <point x="164" y="704" type="line"/>
      <point x="164" y="736" type="line"/>
      <point x="292" y="736" type="line"/>
      <point x="292" y="704" type="line"/>
      <point x="228" y="704" type="line"/>
      <point x="228" y="672" type="line"/>
      <point x="196" y="672" type="line"/>
      <point x="196" y="416" type="line"/>
      <point x="164" y="416" type="line"/>
      <point x="164" y="384" type="line"/>
      <point x="132" y="384" type="line"/>
      <point x="132" y="352" type="line"/>
      <point x="100" y="352" type="line"/>
      <point x="100" y="320" type="line"/>
      <point x="132" y="320" type="line"/>
      <point x="132" y="288" type="line"/>
      <point x="164" y="288" type="line"/>
      <point x="164" y="256" type="line"/>
      <point x="196" y="256" type="line"/>
      <point x="196" y="-32" type="line"/>
      <point x="228" y="-32" type="line"/>
      <point x="228" y="-64" type="line"/>
      <point x="292" y="-64" type="line"/>
      <point x="292" y="-96" type="line"/>
    </contour>
    <contour>
      <point x="164" y="224" type="line"/>
      <point x="132" y="224" type="line"/>
      <point x="132" y="0" type="line"/>
      <point x="164" y="0" type="line"/>
    </contour>
    <contour>
      <point x="164" y="448" type="line"/>
      <point x="164" y="640" type="line"/>
      <point x="132" y="640" type="line"/>
      <point x="132" y="448" type="line"/>
    </contour>
  </outline>
</glyph>
<glyph name="braceright" format="1">
  <advance width="283"/>
  <unicode hex="007D"/>
  <outline>
    <contour>
      <point x="-10" y="-96" type="line"/>
      <point x="-10" y="-64" type="line"/>
      <point x="54" y="-64" type="line"/>
      <point x="54" y="-32" type="line"/>
      <point x="86" y="-32" type="line"/>
      <point x="86" y="256" type="line"/>
      <point x="118" y="256" type="line"/>
      <point x="118" y="288" type="line"/>
      <point x="150" y="288" type="line"/>
      <point x="150" y="320" type="line"/>
      <point x="182" y="320" type="line"/>
      <point x="182" y="352" type="line"/>
      <point x="150" y="352" type="line"/>
      <point x="150" y="384" type="line"/>
      <point x="118" y="384" type="line"/>
      <point x="118" y="416" type="line"/>
      <point x="86" y="416" type="line"/>
      <point x="86" y="672" type="line"/>
      <point x="54" y="672" type="line"/>
      <point x="54" y="704" type="line"/>
      <point x="-10" y="704" type="line"/>
      <point x="-10" y="736" type="line"/>
      <point x="118" y="736" type="line"/>
      <point x="118" y="704" type="line"/>
      <point x="150" y="704" type="line"/>
      <point x="150" y="672" type="line"/>
      <point x="182" y="672" type="line"/>
      <point x="182" y="384" type="line"/>
      <point x="214" y="384" type="line"/>
      <point x="214" y="352" type="line"/>
      <point x="246" y="352" type="line"/>
      <point x="246" y="320" type="line"/>
      <point x="214" y="320" type="line"/>
      <point x="214" y="288" type="line"/>
      <point x="182" y="288" type="line"/>
      <point x="182" y="-32" type="line"/>
      <point x="150" y="-32" type="line"/>
      <point x="150" y="-64" type="line"/>
      <point x="118" y="-64" type="line"/>
      <point x="118" y="-96" type="line"/>
    </contour>
    <contour>
      <point x="150" y="0" type="line"/>
      <point x="150" y="224" type="line"/>
      <point x="118" y="224" type="line"/>
      <point x="118" y="0" type="line"/>
    </contour>
    <contour>
      <point x="150" y="640" type="line"/>
      <point x="118" y="640" type="line"/>
      <point x="118" y="448" type="line"/>
      <point x="150" y="448" type="line"/>
    </contour>
    <contour>
      <point x="86" y="-64" type="line"/>
      <point x="118" y="-64" type="line"/>
      <point x="118" y="-32" type="line"/>
      <point x="86" y="-32" type="line"/>
    </contour>
  </outline>
</glyph>
<glyph name="asciitilde" format="1">
  <advance width="457"/>
  <unicode hex="007E"/>
  <outline>
    <contour>
      <point x="35" y="256" type="line"/>
      <point x="35" y="352" type="line"/>
      <point x="67" y="352" type="line"/>
      <point x="67" y="384" type="line"/>
      <point x="99" y="384" type="line"/>
      <point x="99" y="416" type="line"/>
      <point x="195" y="416" type="line"/>
      <point x="195" y="384" type="line"/>
      <point x="259" y="384" type="line"/>
      <point x="259" y="352" type="line"/>
      <point x="355" y="352" type="line"/>
      <point x="355" y="384" type="line"/>
      <point x="387" y="384" type="line"/>
      <point x="387" y="416" type="line"/>
      <point x="419" y="416" type="line"/>
      <point x="419" y="320" type="line"/>
      <point x="387" y="320" type="line"/>
      <point x="387" y="288" type="line"/>
      <point x="355" y="288" type="line"/>
      <point x="355" y="256" type="line"/>
      <point x="259" y="256" type="line"/>
      <point x="259" y="288" type="line"/>
      <point x="195" y="288" type="line"/>
      <point x="195" y="320" type="line"/>
      <point x="99" y="320" type="line"/>
      <point x="99" y="288" type="line"/>
      <point x="67" y="288" type="line"/>
      <point x="67" y="256" type="line"/>
    </contour>
    <contour>
      <point x="163" y="384" type="line"/>
      <point x="131" y="384" type="line"/>
      <point x="131" y="352" type="line"/>
      <point x="163" y="352" type="line"/>
    </contour>
    <contour>
      <point x="291" y="288" type="line"/>
      <point x="323" y="288" type="line"/>
      <point x="323" y="320" type="line"/>
      <point x="291" y="320" type="line"/>
    </contour>
  </outline>
</glyph>
<glyph name="exclamdown" format="1">
  <advance width="212"/>
  <unicode hex="00A1"/>
  <outline>
    <contour>
      <point x="57" y="544" type="line"/>
      <point x="57" y="640" type="line"/>
      <point x="153" y="640" type="line"/>
      <point x="153" y="544" type="line"/>
    </contour>
    <contour>
      <point x="57" y="0" type="line"/>
      <point x="57" y="448" type="line"/>
      <point x="153" y="448" type="line"/>
      <point x="153" y="0" type="line"/>
    </contour>
    <contour>
      <point x="121" y="32" type="line"/>
      <point x="121" y="416" type="line"/>
      <point x="89" y="416" type="line"/>
      <point x="89" y="32" type="line"/>
    </contour>
    <contour>
      <point x="121" y="576" type="line"/>
      <point x="121" y="608" type="line"/>
      <point x="89" y="608" type="line"/>
      <point x="89" y="576" type="line"/>
    </contour>
  </outline>
</glyph>
